<?xml version="1.0" encoding="UTF-8"?>
<svg width="114px" height="40px" viewBox="0 0 114 40" version="1.1" xmlns="http://www.w3.org/2000/svg" xmlns:xlink="http://www.w3.org/1999/xlink">
    <title>logo@1x</title>
    <g id="页面-1" stroke="none" stroke-width="1" fill="none" fill-rule="evenodd">
        <g id="Home" transform="translate(-530.000000, -10.000000)" fill="#FFFFFF">
            <g id="logo" transform="translate(530.000000, 10.000000)">
                <path d="M52.4995096,17.4002181 C52.6679163,17.4002181 52.7897896,17.3624541 52.8651294,17.286926 C52.9404692,17.2113979 52.9781391,17.0892201 52.9781391,16.9203926 L52.9781391,16.9203926 L52.9781391,15.6008724 C52.9781391,15.5120158 52.9825709,15.4187164 52.9914344,15.3209742 C53.0002979,15.223232 53.0357519,15.1299325 53.0977965,15.041076 L53.0977965,15.041076 L53.6960834,14.2013813 C53.7492644,14.1214104 53.7980137,14.0636536 53.8423313,14.028111 C53.8866488,13.9925684 53.9442616,13.974797 54.0151697,13.974797 L54.0151697,13.974797 L54.2013034,13.974797 C54.2722115,13.974797 54.3298243,13.9925684 54.3741419,14.028111 C54.4184594,14.0636536 54.4672087,14.1214104 54.5203898,14.2013813 L54.5203898,14.2013813 L55.1053814,15.041076 C55.1674259,15.1299325 55.20288,15.223232 55.2117435,15.3209742 C55.220607,15.4187164 55.2250387,15.5120158 55.2250387,15.6008724 L55.2250387,15.6008724 L55.2250387,16.9203926 C55.2250387,17.0892201 55.2627087,17.2113979 55.3380485,17.286926 C55.4133883,17.3624541 55.5352616,17.4002181 55.7036682,17.4002181 L55.7036682,17.4002181 L57.7245484,17.4002181 C57.8929551,17.4002181 58.0148283,17.3624541 58.0901681,17.286926 C58.165508,17.2113979 58.2031779,17.0892201 58.2031779,16.9203926 L58.2031779,16.9203926 L58.2031779,15.4942445 C58.2031779,15.0855043 58.1699397,14.7789491 58.1034634,14.5745789 C58.0369871,14.3702088 57.9018186,14.1302961 57.6979578,13.8548407 L57.6979578,13.8548407 L56.6210415,12.4153641 L57.6979578,10.9492306 C57.8929551,10.6737752 58.0259077,10.4338624 58.0968158,10.2294923 C58.1677238,10.0251222 58.2031779,9.71856699 58.2031779,9.30982673 L58.2031779,9.30982673 L58.2031779,8.28353326 C58.2031779,8.11470576 58.165508,7.99252797 58.0901681,7.91699988 C58.0148283,7.84147179 57.8929551,7.80370774 57.7245484,7.80370774 L57.7245484,7.80370774 L55.7036682,7.80370774 C55.5352616,7.80370774 55.4133883,7.84147179 55.3380485,7.91699988 C55.2627087,7.99252797 55.2250387,8.11470576 55.2250387,8.28353326 L55.2250387,8.28353326 L55.2250387,9.20319884 C55.2250387,9.29205541 55.220607,9.38535482 55.2117435,9.48309706 C55.20288,9.58083929 55.1674259,9.6741387 55.1053814,9.76299527 L55.1053814,9.76299527 L54.5070945,10.6026899 C54.4539134,10.6737752 54.4051641,10.7293106 54.3608466,10.769296 C54.316529,10.8092815 54.2589162,10.8292742 54.1880082,10.8292742 L54.1880082,10.8292742 L54.028465,10.8292742 C53.9575569,10.8292742 53.8977282,10.8092815 53.8489789,10.769296 C53.8002296,10.7293106 53.7536962,10.6737752 53.7093787,10.6026899 L53.7093787,10.6026899 L53.124387,9.76299527 C53.0623425,9.6741387 53.0268884,9.58083929 53.0180249,9.48309706 C53.0091614,9.38535482 53.0047297,9.29205541 53.0047297,9.20319884 L53.0047297,9.20319884 L53.0047297,8.28353326 C53.0047297,8.11470576 52.9670597,7.99252797 52.8917199,7.91699988 C52.8163801,7.84147179 52.6945068,7.80370774 52.5261002,7.80370774 L52.5261002,7.80370774 L50.4786295,7.80370774 C50.3102228,7.80370774 50.1883496,7.84147179 50.1130097,7.91699988 C50.0376699,7.99252797 50,8.11470576 50,8.28353326 L50,8.28353326 L50,9.30982673 C50,9.71856699 50.0332382,10.0251222 50.0997145,10.2294923 C50.1661908,10.4338624 50.3013593,10.6737752 50.50522,10.9492306 L50.50522,10.9492306 L51.5821364,12.4020356 L50.50522,13.8548407 C50.3102228,14.1302961 50.1772702,14.3702088 50.1063621,14.5745789 C50.035454,14.7789491 50,15.0855043 50,15.4942445 L50,15.4942445 L50,16.9203926 C50,17.0892201 50.0376699,17.2113979 50.1130097,17.286926 C50.1883496,17.3624541 50.3102228,17.4002181 50.4786295,17.4002181 L50.4786295,17.4002181 L52.4995096,17.4002181 Z M66.8986797,17.6793893 C68.0497112,17.6793893 68.9965273,17.5863322 69.7391283,17.4002181 C70.4817292,17.214104 71.0665274,16.9566461 71.493523,16.6278444 C71.9205185,16.2990428 72.2175589,15.9019993 72.3846441,15.4367139 C72.5517293,14.9714286 72.6352719,14.4534109 72.6352719,13.8826609 L72.6352719,13.8826609 L72.6352719,4.67001091 C72.6352719,4.43426633 72.582671,4.2636617 72.4774692,4.15819702 C72.3722674,4.05273234 72.202088,4 71.9669311,4 L71.9669311,4 L69.1450475,4 C68.9098906,4 68.7397112,4.05273234 68.6345094,4.15819702 C68.5293076,4.2636617 68.4767067,4.43426633 68.4767067,4.67001091 L68.4767067,4.67001091 L68.4767067,13.1568157 C68.4767067,13.4049679 68.3838816,13.6127953 68.1982314,13.7802981 C68.0125811,13.9478008 67.5917739,14.0315522 66.9358098,14.0315522 C66.2922223,14.0315522 65.8776035,13.9478008 65.6919532,13.7802981 C65.506303,13.6127953 65.4134779,13.4049679 65.4134779,13.1568157 L65.4134779,13.1568157 L65.4134779,4.67001091 C65.4134779,4.43426633 65.360877,4.2636617 65.2556752,4.15819702 C65.1504734,4.05273234 64.980294,4 64.745137,4 L64.745137,4 L61.8304284,4 C61.5952714,4 61.4250921,4.05273234 61.3198903,4.15819702 C61.2146885,4.2636617 61.1620876,4.43426633 61.1620876,4.67001091 L61.1620876,4.67001091 L61.1620876,13.8826609 C61.1620876,14.4534109 61.2456302,14.9714286 61.4127154,15.4367139 C61.5798006,15.9019993 61.876841,16.2990428 62.3038365,16.6278444 C62.730832,16.9566461 63.3156303,17.214104 64.0582312,17.4002181 C64.8008321,17.5863322 65.7476483,17.6793893 66.8986797,17.6793893 Z M82.0291736,17.4002181 C83.5762589,17.4002181 84.7241961,17.0900279 85.4729854,16.4696474 C86.2217747,15.8492669 86.5961693,14.893881 86.5961693,13.6034896 L86.5961693,13.6034896 L86.5961693,7.79672846 C86.5961693,6.50633709 86.2217747,5.55095117 85.4729854,4.9305707 C84.7241961,4.31019023 83.5762589,4 82.0291736,4 L82.0291736,4 L75.7727608,4 C75.5376038,4 75.3674245,4.05273234 75.2622227,4.15819702 C75.1570209,4.2636617 75.10442,4.43426633 75.10442,4.67001091 L75.10442,4.67001091 L75.10442,16.7302072 C75.10442,16.9659518 75.1570209,17.1365564 75.2622227,17.2420211 C75.3674245,17.3474858 75.5376038,17.4002181 75.7727608,17.4002181 L75.7727608,17.4002181 L82.0291736,17.4002181 Z M81.527918,13.8826609 L79.3186802,13.8826609 L79.3186802,7.55478008 L81.527918,7.55478008 C81.8249584,7.55478008 82.0446445,7.62612383 82.1869763,7.76881134 C82.3293081,7.91149885 82.4004741,8.13793772 82.4004741,8.44812795 L82.4004741,8.44812795 L82.4004741,12.9707016 C82.4004741,13.2808918 82.3293081,13.5104326 82.1869763,13.6593239 C82.0446445,13.8082152 81.8249584,13.8826609 81.527918,13.8826609 L81.527918,13.8826609 Z M95.17321,17.4002181 C95.408367,17.4002181 95.5785463,17.3474858 95.6837481,17.2420211 C95.7889499,17.1365564 95.8415508,16.9659518 95.8415508,16.7302072 L95.8415508,16.7302072 L95.8415508,7.59200291 L98.5706092,7.59200291 C98.8057662,7.59200291 98.9759456,7.53927057 99.0811474,7.43380589 C99.1863492,7.32834121 99.2389501,7.15773658 99.2389501,6.921992 L99.2389501,6.921992 L99.2389501,4.67001091 C99.2389501,4.43426633 99.1863492,4.2636617 99.0811474,4.15819702 C98.9759456,4.05273234 98.8057662,4 98.5706092,4 L98.5706092,4 L88.768277,4 C88.5331201,4 88.3629407,4.05273234 88.2577389,4.15819702 C88.1525371,4.2636617 88.0999362,4.43426633 88.0999362,4.67001091 L88.0999362,4.67001091 L88.0999362,6.921992 C88.0999362,7.15773658 88.1525371,7.32834121 88.2577389,7.43380589 C88.3629407,7.53927057 88.5331201,7.59200291 88.768277,7.59200291 L88.768277,7.59200291 L91.4973354,7.59200291 L91.4973354,16.7302072 C91.4973354,16.9659518 91.5499363,17.1365564 91.6551381,17.2420211 C91.7603399,17.3474858 91.9305193,17.4002181 92.1656763,17.4002181 L92.1656763,17.4002181 L95.17321,17.4002181 Z M60.6626884,35.7208288 C60.8978454,35.7208288 61.0680248,35.6680964 61.1732266,35.5626318 C61.2784284,35.4571671 61.3310293,35.2865625 61.3310293,35.0508179 L61.3310293,35.0508179 L61.3310293,29.1882225 C61.3310293,28.9524779 61.2784284,28.7818733 61.1732266,28.6764086 C61.0680248,28.5709439 60.8978454,28.5182116 60.6626884,28.5182116 L60.6626884,28.5182116 L57.9707601,28.5182116 C57.7356031,28.5182116 57.5654237,28.5709439 57.460222,28.6764086 C57.3550202,28.7818733 57.3024193,28.9524779 57.3024193,29.1882225 L57.3024193,29.1882225 L57.3024193,32.2032715 L54.7590111,32.2032715 L54.7590111,22.9906216 C54.7590111,22.754877 54.7064102,22.5842724 54.6012084,22.4788077 C54.4960066,22.373343 54.3258272,22.3206107 54.0906702,22.3206107 L54.0906702,22.3206107 L51.2130917,22.3206107 C50.9779347,22.3206107 50.8077553,22.373343 50.7025535,22.4788077 C50.5973517,22.5842724 50.5447508,22.754877 50.5447508,22.9906216 L50.5447508,22.9906216 L50.5447508,35.0508179 C50.5447508,35.2865625 50.5973517,35.4571671 50.7025535,35.5626318 C50.8077553,35.6680964 50.9779347,35.7208288 51.2130917,35.7208288 L51.2130917,35.7208288 L60.6626884,35.7208288 Z M69.0169489,36 C70.1679803,36 71.1178907,35.9069429 71.8666799,35.7208288 C72.6154692,35.5347146 73.2033616,35.2772568 73.6303571,34.9484551 C74.0573527,34.6196535 74.354393,34.22261 74.5214782,33.7573246 C74.6885634,33.2920393 74.7721061,32.7740216 74.7721061,32.2032715 L74.7721061,32.2032715 L74.7721061,25.8567794 C74.7721061,25.2860293 74.6885634,24.7680116 74.5214782,24.3027263 C74.354393,23.8374409 74.0573527,23.4372955 73.6303571,23.1022901 C73.2033616,22.7672846 72.6154692,22.5067248 71.8666799,22.3206107 C71.1178907,22.1344965 70.1679803,22.0414395 69.0169489,22.0414395 C67.8659174,22.0414395 66.9129129,22.1344965 66.1579353,22.3206107 C65.4029577,22.5067248 64.8119711,22.7672846 64.3849756,23.1022901 C63.9579801,23.4372955 63.6609397,23.8374409 63.4938545,24.3027263 C63.3267693,24.7680116 63.2432267,25.2860293 63.2432267,25.8567794 L63.2432267,25.8567794 L63.2432267,32.2032715 C63.2432267,32.7740216 63.3267693,33.2920393 63.4938545,33.7573246 C63.6609397,34.22261 63.9579801,34.6196535 64.3849756,34.9484551 C64.8119711,35.2772568 65.4029577,35.5347146 66.1579353,35.7208288 C66.9129129,35.9069429 67.8659174,36 69.0169489,36 Z M69.0169489,32.4079971 C68.348608,32.4079971 67.9216125,32.3242457 67.7359623,32.156743 C67.550312,31.9892403 67.4574869,31.7814128 67.4574869,31.5332606 L67.4574869,31.5332606 L67.4574869,26.5267903 C67.4574869,26.2910457 67.550312,26.089422 67.7359623,25.9219193 C67.9216125,25.7544166 68.348608,25.6706652 69.0169489,25.6706652 C69.6852897,25.6706652 70.1122852,25.7544166 70.2979355,25.9219193 C70.4835857,26.089422 70.5764108,26.2910457 70.5764108,26.5267903 L70.5764108,26.5267903 L70.5764108,31.5332606 C70.5764108,31.7814128 70.4835857,31.9892403 70.2979355,32.156743 C70.1122852,32.3242457 69.6852897,32.4079971 69.0169489,32.4079971 Z M87.3406267,35.7208288 C87.5757837,35.7208288 87.7459631,35.6680964 87.8511649,35.5626318 C87.9563667,35.4571671 88.0089676,35.2865625 88.0089676,35.0508179 L88.0089676,35.0508179 L88.0089676,29.2998909 C88.0089676,29.0641464 87.9563667,28.8935417 87.8511649,28.7880771 C87.7459631,28.6826124 87.5757837,28.62988 87.3406267,28.62988 L87.3406267,28.62988 L84.4630481,28.62988 C84.2278912,28.62988 84.0577118,28.6826124 83.95251,28.7880771 C83.8473082,28.8935417 83.7947073,29.0641464 83.7947073,29.2998909 L83.7947073,29.2998909 L83.7947073,32.2032715 L81.9939001,32.2032715 C81.7092364,32.2032715 81.4957386,32.1288259 81.3534068,31.9799346 C81.2110749,31.8310433 81.139909,31.6015025 81.139909,31.2913123 L81.139909,31.2913123 L81.139909,26.8431843 C81.139909,26.5329941 81.2327341,26.3003514 81.4183843,26.1452563 C81.6040346,25.9901612 81.8886983,25.9126136 82.2723754,25.9126136 L82.2723754,25.9126136 L86.1339002,25.9126136 C86.3690572,25.9126136 86.5392366,25.8598813 86.6444384,25.7544166 C86.7496402,25.6489519 86.8022411,25.4783473 86.8022411,25.2426027 L86.8022411,25.2426027 L86.8022411,22.9906216 C86.8022411,22.754877 86.7496402,22.5842724 86.6444384,22.4788077 C86.5392366,22.373343 86.3690572,22.3206107 86.1339002,22.3206107 L86.1339002,22.3206107 L81.4926444,22.3206107 C79.9455592,22.3206107 78.7976219,22.6308009 78.0488326,23.2511814 C77.3000434,23.8715619 76.9256487,24.8269478 76.9256487,26.1173391 L76.9256487,26.1173391 L76.9256487,31.9241003 C76.9256487,33.2144917 77.3000434,34.1698776 78.0488326,34.7902581 C78.7976219,35.4106386 79.9455592,35.7208288 81.4926444,35.7208288 L81.4926444,35.7208288 L87.3406267,35.7208288 Z M95.8434073,36 C96.9944388,36 97.9443491,35.9069429 98.6931384,35.7208288 C99.4419277,35.5347146 100.02982,35.2772568 100.456816,34.9484551 C100.883811,34.6196535 101.180852,34.22261 101.347937,33.7573246 C101.515022,33.2920393 101.598565,32.7740216 101.598565,32.2032715 L101.598565,32.2032715 L101.598565,25.8567794 C101.598565,25.2860293 101.515022,24.7680116 101.347937,24.3027263 C101.180852,23.8374409 100.883811,23.4372955 100.456816,23.1022901 C100.02982,22.7672846 99.4419277,22.5067248 98.6931384,22.3206107 C97.9443491,22.1344965 96.9944388,22.0414395 95.8434073,22.0414395 C94.6923759,22.0414395 93.7393714,22.1344965 92.9843938,22.3206107 C92.2294162,22.5067248 91.6384296,22.7672846 91.2114341,23.1022901 C90.7844385,23.4372955 90.4873982,23.8374409 90.320313,24.3027263 C90.1532277,24.7680116 90.0696851,25.2860293 90.0696851,25.8567794 L90.0696851,25.8567794 L90.0696851,32.2032715 C90.0696851,32.7740216 90.1532277,33.2920393 90.320313,33.7573246 C90.4873982,34.22261 90.7844385,34.6196535 91.2114341,34.9484551 C91.6384296,35.2772568 92.2294162,35.5347146 92.9843938,35.7208288 C93.7393714,35.9069429 94.6923759,36 95.8434073,36 Z M95.8434073,32.4079971 C95.1750665,32.4079971 94.748071,32.3242457 94.5624207,32.156743 C94.3767705,31.9892403 94.2839454,31.7814128 94.2839454,31.5332606 L94.2839454,31.5332606 L94.2839454,26.5267903 C94.2839454,26.2910457 94.3767705,26.089422 94.5624207,25.9219193 C94.748071,25.7544166 95.1750665,25.6706652 95.8434073,25.6706652 C96.5117482,25.6706652 96.9387437,25.7544166 97.1243939,25.9219193 C97.3100442,26.089422 97.4028693,26.2910457 97.4028693,26.5267903 L97.4028693,26.5267903 L97.4028693,31.5332606 C97.4028693,31.7814128 97.3100442,31.9892403 97.1243939,32.156743 C96.9387437,32.3242457 96.5117482,32.4079971 95.8434073,32.4079971 Z M110.15704,35.7208288 C111.345202,35.7208288 112.282735,35.4385557 112.969641,34.8740095 C113.656547,34.3094632 114,33.4998667 114,32.4452199 L114,32.4452199 L114,30.4910214 C114,29.4487823 113.733901,28.7043257 113.201704,28.2576518 C112.669507,27.8109778 111.970224,27.5256028 111.103856,27.4015267 L111.103856,27.4015267 L108.337668,27.0292984 C108.176771,27.0168908 108.053004,26.9548528 107.966367,26.8431843 C107.879731,26.7315158 107.836412,26.5950321 107.836412,26.4337332 C107.836412,26.2724343 107.879731,26.1390525 107.966367,26.0335878 C108.053004,25.9281231 108.176771,25.8753908 108.337668,25.8753908 L108.337668,25.8753908 L112.663318,25.8753908 C112.898475,25.8753908 113.068655,25.8226584 113.173856,25.7171937 C113.279058,25.6117291 113.331659,25.4411244 113.331659,25.2053799 L113.331659,25.2053799 L113.331659,22.9906216 C113.331659,22.754877 113.279058,22.5842724 113.173856,22.4788077 C113.068655,22.373343 112.898475,22.3206107 112.663318,22.3206107 L112.663318,22.3206107 L107.465112,22.3206107 C106.264574,22.3206107 105.323946,22.6028838 104.643228,23.16743 C103.962511,23.7319763 103.622152,24.5415728 103.622152,25.5962196 L103.622152,25.5962196 L103.622152,27.550418 C103.622152,28.5926572 103.885157,29.3371138 104.411166,29.7837877 C104.937175,30.2304617 105.633363,30.5158367 106.499731,30.6399128 L106.499731,30.6399128 L109.284484,31.0307525 C109.445381,31.0431601 109.566054,31.0989943 109.646502,31.1982552 C109.726951,31.2975161 109.767175,31.4526112 109.767175,31.6635405 C109.767175,31.8124318 109.726951,31.9396098 109.646502,32.0450745 C109.566054,32.1505392 109.445381,32.2032715 109.284484,32.2032715 L109.284484,32.2032715 L104.290493,32.2032715 C104.055336,32.2032715 103.885157,32.2560039 103.779955,32.3614686 C103.674753,32.4669332 103.622152,32.6375379 103.622152,32.8732824 L103.622152,32.8732824 L103.622152,35.0508179 C103.622152,35.2865625 103.674753,35.4571671 103.779955,35.5626318 C103.885157,35.6680964 104.055336,35.7208288 104.290493,35.7208288 L104.290493,35.7208288 L110.15704,35.7208288 Z" id="XUDTLOGOS" fill-rule="nonzero"></path>
                <g id="编组-5">
                    <path d="M35,0 C37.7614237,-5.07265313e-16 40,2.23857625 40,5 L40,35 C40,37.7614237 37.7614237,40 35,40 L5,40 C2.23857625,40 3.38176876e-16,37.7614237 0,35 L0,5 C-3.38176876e-16,2.23857625 2.23857625,5.07265313e-16 5,0 L35,0 Z M15.3905997,8 L9.40032415,8 C8.9076175,8 8.55105348,8.09444444 8.33063209,8.28333333 C8.13776337,8.44861111 8.02927472,8.70321181 8.00516613,9.04713542 L8,9.2 L8,11.7666667 C8,12.7888889 8.09724473,13.5555556 8.2917342,14.0666667 C8.46461372,14.5209877 8.79628629,15.0455418 9.28675191,15.6403292 L9.47811994,15.8666667 L12.6288493,19.5 L9.47811994,23.1333333 C8.9076175,23.8222222 8.51863857,24.4222222 8.31118314,24.9333333 C8.12447326,25.3933333 8.02178282,26.0603333 8.00311183,26.9343333 L8,27.2333333 L8,30.8 C8,31.2222222 8.1102107,31.5277778 8.33063209,31.7166667 C8.52350081,31.8819444 8.82060373,31.9749132 9.22194084,31.9955729 L9.40032415,32 L15.3128039,32 C15.8055105,32 16.1620746,31.9055556 16.3824959,31.7166667 C16.5753647,31.5513889 16.6838533,31.2967882 16.7079619,30.9528646 L16.713128,30.8 L16.713128,27.5 C16.713128,27.2777778 16.726094,27.0444444 16.7520259,26.8 C16.7727715,26.6044444 16.8433063,26.416 16.9636305,26.2346667 L17.0632091,26.1 L18.8136143,24 C18.9692058,23.8 19.1118314,23.6555556 19.2414911,23.5666667 C19.3452188,23.4955556 19.4738412,23.4528889 19.6273582,23.4386667 L19.7471637,23.4333333 L20.2917342,23.4333333 C20.4991896,23.4333333 20.6677472,23.4777778 20.7974068,23.5666667 C20.9011345,23.6377778 21.0131605,23.7444444 21.1334846,23.8866667 L21.2252836,24 L22.9367909,26.1 C23.1183144,26.3222222 23.2220421,26.5555556 23.2479741,26.8 C23.265262,26.962963 23.2767873,27.1209877 23.28255,27.2740741 L23.286872,27.5 L23.286872,30.8 C23.286872,31.2222222 23.3970827,31.5277778 23.6175041,31.7166667 C23.8103728,31.8819444 24.1074757,31.9749132 24.5088128,31.9955729 L24.6871961,32 L30.5996759,32 C31.0923825,32 31.4489465,31.9055556 31.6693679,31.7166667 C31.8622366,31.5513889 31.9707253,31.2967882 31.9948339,30.9528646 L32,30.8 L32,27.2333333 C32,26.2111111 31.9027553,25.4444444 31.7082658,24.9333333 C31.5353863,24.4790123 31.2037137,23.9544582 30.7132481,23.3596708 L30.5218801,23.1333333 L27.3711507,19.5333333 L30.5218801,15.8666667 C31.0923825,15.1777778 31.4813614,14.5777778 31.6888169,14.0666667 C31.8755267,13.6066667 31.9782172,12.9396667 31.9968882,12.0656667 L32,11.7666667 L32,9.2 C32,8.77777778 31.8897893,8.47222222 31.6693679,8.28333333 C31.4764992,8.11805556 31.1793963,8.02508681 30.7780592,8.00442708 L30.5996759,8 L24.6871961,8 C24.1944895,8 23.8379254,8.09444444 23.6175041,8.28333333 C23.4246353,8.44861111 23.3161467,8.70321181 23.2920381,9.04713542 L23.286872,9.2 L23.286872,11.5 C23.286872,11.7222222 23.273906,11.9555556 23.2479741,12.2 C23.2272285,12.3955556 23.1566937,12.584 23.0363695,12.7653333 L22.9367909,12.9 L21.1863857,15 C21.0307942,15.1777778 20.8881686,15.3166667 20.7585089,15.4166667 C20.6547812,15.4966667 20.5261588,15.5446667 20.3726418,15.5606667 L20.2528363,15.5666667 L19.7860616,15.5666667 C19.5786062,15.5666667 19.4035656,15.5166667 19.26094,15.4166667 C19.1539708,15.3416667 19.0506483,15.2447917 18.9509724,15.1260417 L18.8525122,15 L17.1410049,12.9 C16.9594814,12.6777778 16.8557536,12.4444444 16.8298217,12.2 C16.8125338,12.037037 16.8010085,11.8790123 16.7952458,11.7259259 L16.7909238,11.5 L16.7909238,9.2 C16.7909238,8.77777778 16.6807131,8.47222222 16.4602917,8.28333333 C16.267423,8.11805556 15.9703201,8.02508681 15.568983,8.00442708 L15.3905997,8 Z" id="形状结合"></path>
                </g>
            </g>
        </g>
    </g>
</svg>