<?xml version="1.0" encoding="utf-8"?>
<svg viewBox="0 0 200 200" width="200" height="200" xmlns="http://www.w3.org/2000/svg">
  <path d="M 0 100 C 0 44.771 44.771 0 100 0 C 155.227 0 200 44.771 200 100 C 200 155.229 155.227 200 100 200 C 44.771 200 0 155.229 0 100 Z" fill="white" style=""/>
  <path d="M 113.606 63.298 C 109.221 63.298 106.106 66.412 106.106 70.798 C 106.106 75.181 109.221 78.296 113.606 78.296 C 117.99 78.296 121.104 75.181 121.104 70.798 C 121.146 66.412 118.031 63.298 113.606 63.298 Z" fill="#121314" style=""/>
  <path d="M 34.275 133.123 C 38.417 133.123 41.773 129.765 41.773 125.623 C 41.773 121.481 38.417 118.125 34.275 118.125 C 30.133 118.125 26.777 121.481 26.777 125.623 C 26.777 129.765 30.133 133.123 34.275 133.123 Z" fill="#00DF9B" style=""/>
  <path d="M 77.465 83.173 C 73.244 83.173 69.392 84.483 66.237 86.86 C 66.237 77.271 66.237 66.577 66.237 66.577 C 62.14 64.527 57.14 64.365 52.715 66.577 L 52.715 132.302 C 56.812 134.352 61.81 134.515 66.237 132.302 L 66.237 129.721 C 69.433 132.098 73.285 133.408 77.465 133.408 C 84.431 133.408 90.454 129.844 94.019 123.656 C 96.396 119.519 97.625 114.315 97.625 108.29 C 97.625 102.267 96.396 97.062 94.019 92.925 C 90.496 86.737 84.431 83.173 77.465 83.173 Z M 75.006 121.977 C 68.9 121.977 66.237 115.831 66.237 108.29 C 66.237 100.71 68.858 94.604 75.006 94.604 C 81.11 94.604 83.775 101.487 83.775 108.29 C 83.775 115.094 81.11 121.977 75.006 121.977 Z" fill="#121314" style=""/>
  <path d="M 106.844 84.606 L 106.844 132.302 C 110.942 134.352 115.942 134.515 120.367 132.302 L 120.367 84.606 C 116.269 82.556 111.271 82.394 106.844 84.606 Z" fill="#121314" style=""/>
  <path d="M 158.271 122.1 L 153.229 122.1 C 151.181 122.1 149.542 120.46 149.542 118.412 L 149.542 95.3 C 153.148 95.3 158.271 95.3 158.271 95.3 C 159.908 92.023 160.031 88.048 158.271 84.525 L 149.542 84.525 L 149.542 72.519 C 145.444 70.469 140.446 70.306 136.021 72.519 L 136.021 84.483 L 128.398 84.483 C 126.758 87.76 126.635 91.735 128.398 95.26 C 128.398 95.26 133.11 95.26 136.021 95.26 L 136.021 122.877 C 136.021 130.704 141.306 133.9 150.977 133.9 C 155.36 133.9 158.271 133.45 158.271 133.45 C 159.992 130.008 160.154 125.829 158.271 122.1 Z" fill="#121314" style=""/>
</svg>