<?xml version="1.0" encoding="UTF-8"?>
<svg viewBox="0 0 132 132" width="1320" height="1320" version="1.1" xmlns="http://www.w3.org/2000/svg" xmlns:xlink="http://www.w3.org/1999/xlink">
    <defs>
        <path d="M60,119.971689 C78.2589865,120.372188 93,110.971689 105,99.9716887 C117,88.9716887 120,71.3914805 120,55.4408118 C120,45.4154293 118.322388,35.9414837 112.947572,29.0048454 C106.466585,20.640602 100,11.9716887 90.6061274,8.46350895 C81.2122547,4.95532919 71.6760075,0.0184376965 60.3050847,3.45014138e-15 C50.0639602,-0.0156470688 41.1866979,3.81315012 32.0370491,7.29430887 C25,9.97168871 18.9892062,15.8948743 13.220339,21.7627669 C4.38255742,30.7522532 0,49.1138128 0,63.3650577 C0,76.2501657 6.10169492,87.1377953 10.5753493,96.044375 C19.8034525,114.416567 38.6949153,119.504375 60,119.971689 Z" id="path-1"></path>
        <path d="M60,119.971689 C78.2589865,120.372188 93,110.971689 105,99.9716887 C117,88.9716887 120,71.3914805 120,55.4408118 C120,45.4154293 118.322388,35.9414837 112.947572,29.0048454 C106.466585,20.640602 100,11.9716887 90.6061274,8.46350895 C81.2122547,4.95532919 71.6760075,0.0184376965 60.3050847,3.45014138e-15 C50.0639602,-0.0156470688 41.1866979,3.81315012 32.0370491,7.29430887 C25,9.97168871 18.9892062,15.8948743 13.220339,21.7627669 C4.38255742,30.7522532 0,49.1138128 0,63.3650577 C0,76.2501657 6.10169492,87.1377953 10.5753493,96.044375 C19.8034525,114.416567 38.6949153,119.504375 60,119.971689 Z" id="path-3"></path>
        <path d="M60,119.971689 C78.2589865,120.372188 93,110.971689 105,99.9716887 C117,88.9716887 120,71.3914805 120,55.4408118 C120,45.4154293 118.322388,35.9414837 112.947572,29.0048454 C106.466585,20.640602 100,11.9716887 90.6061274,8.46350895 C81.2122547,4.95532919 71.6760075,0.0184376965 60.3050847,3.45014138e-15 C50.0639602,-0.0156470688 41.1866979,3.81315012 32.0370491,7.29430887 C25,9.97168871 18.9892062,15.8948743 13.220339,21.7627669 C4.38255742,30.7522532 0,49.1138128 0,63.3650577 C0,76.2501657 6.10169492,87.1377953 10.5753493,96.044375 C19.8034525,114.416567 38.6949153,119.504375 60,119.971689 Z" id="path-5"></path>
        <path d="M60,119.971689 C78.2589865,120.372188 93,110.971689 105,99.9716887 C117,88.9716887 120,71.3914805 120,55.4408118 C120,45.4154293 118.322388,35.9414837 112.947572,29.0048454 C106.466585,20.640602 100,11.9716887 90.6061274,8.46350895 C81.2122547,4.95532919 71.6760075,0.0184376965 60.3050847,3.45014138e-15 C50.0639602,-0.0156470688 41.1866979,3.81315012 32.0370491,7.29430887 C25,9.97168871 18.9892062,15.8948743 13.220339,21.7627669 C4.38255742,30.7522532 0,49.1138128 0,63.3650577 C0,76.2501657 6.10169492,87.1377953 10.5753493,96.044375 C19.8034525,114.416567 38.6949153,119.504375 60,119.971689 Z" id="path-7"></path>
        <path d="M60,119.971689 C78.2589865,120.372188 93,110.971689 105,99.9716887 C117,88.9716887 120,71.3914805 120,55.4408118 C120,45.4154293 118.322388,35.9414837 112.947572,29.0048454 C106.466585,20.640602 100,11.9716887 90.6061274,8.46350895 C81.2122547,4.95532919 71.6760075,0.0184376965 60.3050847,3.45014138e-15 C50.0639602,-0.0156470688 41.1866979,3.81315012 32.0370491,7.29430887 C25,9.97168871 18.9892062,15.8948743 13.220339,21.7627669 C4.38255742,30.7522532 0,49.1138128 0,63.3650577 C0,76.2501657 6.10169492,87.1377953 10.5753493,96.044375 C19.8034525,114.416567 38.6949153,119.504375 60,119.971689 Z" id="path-9"></path>
        <path d="M60,119.971689 C78.2589865,120.372188 93,110.971689 105,99.9716887 C117,88.9716887 120,71.3914805 120,55.4408118 C120,45.4154293 118.322388,35.9414837 112.947572,29.0048454 C106.466585,20.640602 100,11.9716887 90.6061274,8.46350895 C81.2122547,4.95532919 71.6760075,0.0184376965 60.3050847,3.45014138e-15 C50.0639602,-0.0156470688 41.1866979,3.81315012 32.0370491,7.29430887 C25,9.97168871 18.9892062,15.8948743 13.220339,21.7627669 C4.38255742,30.7522532 0,49.1138128 0,63.3650577 C0,76.2501657 6.10169492,87.1377953 10.5753493,96.044375 C19.8034525,114.416567 38.6949153,119.504375 60,119.971689 Z" id="path-11"></path>
        <path d="M60,119.971689 C78.2589865,120.372188 93,110.971689 105,99.9716887 C117,88.9716887 120,71.3914805 120,55.4408118 C120,45.4154293 118.322388,35.9414837 112.947572,29.0048454 C106.466585,20.640602 100,11.9716887 90.6061274,8.46350895 C81.2122547,4.95532919 71.6760075,0.0184376965 60.3050847,3.45014138e-15 C50.0639602,-0.0156470688 41.1866979,3.81315012 32.0370491,7.29430887 C25,9.97168871 18.9892062,15.8948743 13.220339,21.7627669 C4.38255742,30.7522532 0,49.1138128 0,63.3650577 C0,76.2501657 6.10169492,87.1377953 10.5753493,96.044375 C19.8034525,114.416567 38.6949153,119.504375 60,119.971689 Z" id="path-13"></path>
        <path d="M60,119.971689 C78.2589865,120.372188 93,110.971689 105,99.9716887 C117,88.9716887 120,71.3914805 120,55.4408118 C120,45.4154293 118.322388,35.9414837 112.947572,29.0048454 C106.466585,20.640602 100,11.9716887 90.6061274,8.46350895 C81.2122547,4.95532919 71.6760075,0.0184376965 60.3050847,3.45014138e-15 C50.0639602,-0.0156470688 41.1866979,3.81315012 32.0370491,7.29430887 C25,9.97168871 18.9892062,15.8948743 13.220339,21.7627669 C4.38255742,30.7522532 0,49.1138128 0,63.3650577 C0,76.2501657 6.10169492,87.1377953 10.5753493,96.044375 C19.8034525,114.416567 38.6949153,119.504375 60,119.971689 Z" id="path-15"></path>
        <path d="M60,119.971689 C78.2589865,120.372188 93,110.971689 105,99.9716887 C117,88.9716887 120,71.3914805 120,55.4408118 C120,45.4154293 118.322388,35.9414837 112.947572,29.0048454 C106.466585,20.640602 100,11.9716887 90.6061274,8.46350895 C81.2122547,4.95532919 71.6760075,0.0184376965 60.3050847,3.45014138e-15 C50.0639602,-0.0156470688 41.1866979,3.81315012 32.0370491,7.29430887 C25,9.97168871 18.9892062,15.8948743 13.220339,21.7627669 C4.38255742,30.7522532 0,49.1138128 0,63.3650577 C0,76.2501657 6.10169492,87.1377953 10.5753493,96.044375 C19.8034525,114.416567 38.6949153,119.504375 60,119.971689 Z" id="path-17"></path>
        <path d="M60,119.971689 C78.2589865,120.372188 93,110.971689 105,99.9716887 C117,88.9716887 120,71.3914805 120,55.4408118 C120,45.4154293 118.322388,35.9414837 112.947572,29.0048454 C106.466585,20.640602 100,11.9716887 90.6061274,8.46350895 C81.2122547,4.95532919 71.6760075,0.0184376965 60.3050847,3.45014138e-15 C50.0639602,-0.0156470688 41.1866979,3.81315012 32.0370491,7.29430887 C25,9.97168871 18.9892062,15.8948743 13.220339,21.7627669 C4.38255742,30.7522532 0,49.1138128 0,63.3650577 C0,76.2501657 6.10169492,87.1377953 10.5753493,96.044375 C19.8034525,114.416567 38.6949153,119.504375 60,119.971689 Z" id="path-19"></path>
        <path d="M60,119.971689 C78.2589865,120.372188 93,110.971689 105,99.9716887 C117,88.9716887 120,71.3914805 120,55.4408118 C120,45.4154293 118.322388,35.9414837 112.947572,29.0048454 C106.466585,20.640602 100,11.9716887 90.6061274,8.46350895 C81.2122547,4.95532919 71.6760075,0.0184376965 60.3050847,3.45014138e-15 C50.0639602,-0.0156470688 41.1866979,3.81315012 32.0370491,7.29430887 C25,9.97168871 18.9892062,15.8948743 13.220339,21.7627669 C4.38255742,30.7522532 0,49.1138128 0,63.3650577 C0,76.2501657 6.10169492,87.1377953 10.5753493,96.044375 C19.8034525,114.416567 38.6949153,119.504375 60,119.971689 Z" id="path-21"></path>
        <path d="M60,119.971689 C78.2589865,120.372188 93,110.971689 105,99.9716887 C117,88.9716887 120,71.3914805 120,55.4408118 C120,45.4154293 118.322388,35.9414837 112.947572,29.0048454 C106.466585,20.640602 100,11.9716887 90.6061274,8.46350895 C81.2122547,4.95532919 71.6760075,0.0184376965 60.3050847,3.45014138e-15 C50.0639602,-0.0156470688 41.1866979,3.81315012 32.0370491,7.29430887 C25,9.97168871 18.9892062,15.8948743 13.220339,21.7627669 C4.38255742,30.7522532 0,49.1138128 0,63.3650577 C0,76.2501657 6.10169492,87.1377953 10.5753493,96.044375 C19.8034525,114.416567 38.6949153,119.504375 60,119.971689 Z" id="path-23"></path>
        <path d="M60,119.971689 C78.2589865,120.372188 93,110.971689 105,99.9716887 C117,88.9716887 120,71.3914805 120,55.4408118 C120,45.4154293 118.322388,35.9414837 112.947572,29.0048454 C106.466585,20.640602 100,11.9716887 90.6061274,8.46350895 C81.2122547,4.95532919 71.6760075,0.0184376965 60.3050847,3.45014138e-15 C50.0639602,-0.0156470688 41.1866979,3.81315012 32.0370491,7.29430887 C25,9.97168871 18.9892062,15.8948743 13.220339,21.7627669 C4.38255742,30.7522532 0,49.1138128 0,63.3650577 C0,76.2501657 6.10169492,87.1377953 10.5753493,96.044375 C19.8034525,114.416567 38.6949153,119.504375 60,119.971689 Z" id="path-25"></path>
        <path d="M60,119.971689 C78.2589865,120.372188 93,110.971689 105,99.9716887 C117,88.9716887 120,71.3914805 120,55.4408118 C120,45.4154293 118.322388,35.9414837 112.947572,29.0048454 C106.466585,20.640602 100,11.9716887 90.6061274,8.46350895 C81.2122547,4.95532919 71.6760075,0.0184376965 60.3050847,3.45014138e-15 C50.0639602,-0.0156470688 41.1866979,3.81315012 32.0370491,7.29430887 C25,9.97168871 18.9892062,15.8948743 13.220339,21.7627669 C4.38255742,30.7522532 0,49.1138128 0,63.3650577 C0,76.2501657 6.10169492,87.1377953 10.5753493,96.044375 C19.8034525,114.416567 38.6949153,119.504375 60,119.971689 Z" id="path-27"></path>
        <path d="M60,119.971689 C78.2589865,120.372188 93,110.971689 105,99.9716887 C117,88.9716887 120,71.3914805 120,55.4408118 C120,45.4154293 118.322388,35.9414837 112.947572,29.0048454 C106.466585,20.640602 100,11.9716887 90.6061274,8.46350895 C81.2122547,4.95532919 71.6760075,0.0184376965 60.3050847,3.45014138e-15 C50.0639602,-0.0156470688 41.1866979,3.81315012 32.0370491,7.29430887 C25,9.97168871 18.9892062,15.8948743 13.220339,21.7627669 C4.38255742,30.7522532 0,49.1138128 0,63.3650577 C0,76.2501657 6.10169492,87.1377953 10.5753493,96.044375 C19.8034525,114.416567 38.6949153,119.504375 60,119.971689 Z" id="path-29"></path>
        <path d="M60,119.971689 C78.2589865,120.372188 93,110.971689 105,99.9716887 C117,88.9716887 120,71.3914805 120,55.4408118 C120,45.4154293 118.322388,35.9414837 112.947572,29.0048454 C106.466585,20.640602 100,11.9716887 90.6061274,8.46350895 C81.2122547,4.95532919 71.6760075,0.0184376965 60.3050847,3.45014138e-15 C50.0639602,-0.0156470688 41.1866979,3.81315012 32.0370491,7.29430887 C25,9.97168871 18.9892062,15.8948743 13.220339,21.7627669 C4.38255742,30.7522532 0,49.1138128 0,63.3650577 C0,76.2501657 6.10169492,87.1377953 10.5753493,96.044375 C19.8034525,114.416567 38.6949153,119.504375 60,119.971689 Z" id="path-31"></path>
        <path d="M60,119.971689 C78.2589865,120.372188 93,110.971689 105,99.9716887 C117,88.9716887 120,71.3914805 120,55.4408118 C120,45.4154293 118.322388,35.9414837 112.947572,29.0048454 C106.466585,20.640602 100,11.9716887 90.6061274,8.46350895 C81.2122547,4.95532919 71.6760075,0.0184376965 60.3050847,3.45014138e-15 C50.0639602,-0.0156470688 41.1866979,3.81315012 32.0370491,7.29430887 C25,9.97168871 18.9892062,15.8948743 13.220339,21.7627669 C4.38255742,30.7522532 0,49.1138128 0,63.3650577 C0,76.2501657 6.10169492,87.1377953 10.5753493,96.044375 C19.8034525,114.416567 38.6949153,119.504375 60,119.971689 Z" id="path-33"></path>
        <path d="M60,119.971689 C78.2589865,120.372188 93,110.971689 105,99.9716887 C117,88.9716887 120,71.3914805 120,55.4408118 C120,45.4154293 118.322388,35.9414837 112.947572,29.0048454 C106.466585,20.640602 100,11.9716887 90.6061274,8.46350895 C81.2122547,4.95532919 71.6760075,0.0184376965 60.3050847,3.45014138e-15 C50.0639602,-0.0156470688 41.1866979,3.81315012 32.0370491,7.29430887 C25,9.97168871 18.9892062,15.8948743 13.220339,21.7627669 C4.38255742,30.7522532 0,49.1138128 0,63.3650577 C0,76.2501657 6.10169492,87.1377953 10.5753493,96.044375 C19.8034525,114.416567 38.6949153,119.504375 60,119.971689 Z" id="path-35"></path>
        <path d="M60,119.971689 C78.2589865,120.372188 93,110.971689 105,99.9716887 C117,88.9716887 120,71.3914805 120,55.4408118 C120,45.4154293 118.322388,35.9414837 112.947572,29.0048454 C106.466585,20.640602 100,11.9716887 90.6061274,8.46350895 C81.2122547,4.95532919 71.6760075,0.0184376965 60.3050847,3.45014138e-15 C50.0639602,-0.0156470688 41.1866979,3.81315012 32.0370491,7.29430887 C25,9.97168871 18.9892062,15.8948743 13.220339,21.7627669 C4.38255742,30.7522532 0,49.1138128 0,63.3650577 C0,76.2501657 6.10169492,87.1377953 10.5753493,96.044375 C19.8034525,114.416567 38.6949153,119.504375 60,119.971689 Z" id="path-37"></path>
        <path d="M60,119.971689 C78.2589865,120.372188 93,110.971689 105,99.9716887 C117,88.9716887 120,71.3914805 120,55.4408118 C120,45.4154293 118.322388,35.9414837 112.947572,29.0048454 C106.466585,20.640602 100,11.9716887 90.6061274,8.46350895 C81.2122547,4.95532919 71.6760075,0.0184376965 60.3050847,3.45014138e-15 C50.0639602,-0.0156470688 41.1866979,3.81315012 32.0370491,7.29430887 C25,9.97168871 18.9892062,15.8948743 13.220339,21.7627669 C4.38255742,30.7522532 0,49.1138128 0,63.3650577 C0,76.2501657 6.10169492,87.1377953 10.5753493,96.044375 C19.8034525,114.416567 38.6949153,119.504375 60,119.971689 Z" id="path-39"></path>
        <path d="M60,119.971689 C78.2589865,120.372188 93,110.971689 105,99.9716887 C117,88.9716887 120,71.3914805 120,55.4408118 C120,45.4154293 118.322388,35.9414837 112.947572,29.0048454 C106.466585,20.640602 100,11.9716887 90.6061274,8.46350895 C81.2122547,4.95532919 71.6760075,0.0184376965 60.3050847,3.45014138e-15 C50.0639602,-0.0156470688 41.1866979,3.81315012 32.0370491,7.29430887 C25,9.97168871 18.9892062,15.8948743 13.220339,21.7627669 C4.38255742,30.7522532 0,49.1138128 0,63.3650577 C0,76.2501657 6.10169492,87.1377953 10.5753493,96.044375 C19.8034525,114.416567 38.6949153,119.504375 60,119.971689 Z" id="path-41"></path>
        <path d="M60,119.971689 C78.2589865,120.372188 93,110.971689 105,99.9716887 C117,88.9716887 120,71.3914805 120,55.4408118 C120,45.4154293 118.322388,35.9414837 112.947572,29.0048454 C106.466585,20.640602 100,11.9716887 90.6061274,8.46350895 C81.2122547,4.95532919 71.6760075,0.0184376965 60.3050847,3.45014138e-15 C50.0639602,-0.0156470688 41.1866979,3.81315012 32.0370491,7.29430887 C25,9.97168871 18.9892062,15.8948743 13.220339,21.7627669 C4.38255742,30.7522532 0,49.1138128 0,63.3650577 C0,76.2501657 6.10169492,87.1377953 10.5753493,96.044375 C19.8034525,114.416567 38.6949153,119.504375 60,119.971689 Z" id="path-43"></path>
        <path d="M60,119.971689 C78.2589865,120.372188 93,110.971689 105,99.9716887 C117,88.9716887 120,71.3914805 120,55.4408118 C120,45.4154293 118.322388,35.9414837 112.947572,29.0048454 C106.466585,20.640602 100,11.9716887 90.6061274,8.46350895 C81.2122547,4.95532919 71.6760075,0.0184376965 60.3050847,3.45014138e-15 C50.0639602,-0.0156470688 41.1866979,3.81315012 32.0370491,7.29430887 C25,9.97168871 18.9892062,15.8948743 13.220339,21.7627669 C4.38255742,30.7522532 0,49.1138128 0,63.3650577 C0,76.2501657 6.10169492,87.1377953 10.5753493,96.044375 C19.8034525,114.416567 38.6949153,119.504375 60,119.971689 Z" id="path-45"></path>
        <path d="M60,119.971689 C78.2589865,120.372188 93,110.971689 105,99.9716887 C117,88.9716887 120,71.3914805 120,55.4408118 C120,45.4154293 118.322388,35.9414837 112.947572,29.0048454 C106.466585,20.640602 100,11.9716887 90.6061274,8.46350895 C81.2122547,4.95532919 71.6760075,0.0184376965 60.3050847,3.45014138e-15 C50.0639602,-0.0156470688 41.1866979,3.81315012 32.0370491,7.29430887 C25,9.97168871 18.9892062,15.8948743 13.220339,21.7627669 C4.38255742,30.7522532 0,49.1138128 0,63.3650577 C0,76.2501657 6.10169492,87.1377953 10.5753493,96.044375 C19.8034525,114.416567 38.6949153,119.504375 60,119.971689 Z" id="path-47"></path>
        <path d="M60,119.971689 C78.2589865,120.372188 93,110.971689 105,99.9716887 C117,88.9716887 120,71.3914805 120,55.4408118 C120,45.4154293 118.322388,35.9414837 112.947572,29.0048454 C106.466585,20.640602 100,11.9716887 90.6061274,8.46350895 C81.2122547,4.95532919 71.6760075,0.0184376965 60.3050847,3.45014138e-15 C50.0639602,-0.0156470688 41.1866979,3.81315012 32.0370491,7.29430887 C25,9.97168871 18.9892062,15.8948743 13.220339,21.7627669 C4.38255742,30.7522532 0,49.1138128 0,63.3650577 C0,76.2501657 6.10169492,87.1377953 10.5753493,96.044375 C19.8034525,114.416567 38.6949153,119.504375 60,119.971689 Z" id="path-49"></path>
        <path d="M60,119.971689 C78.2589865,120.372188 93,110.971689 105,99.9716887 C117,88.9716887 120,71.3914805 120,55.4408118 C120,45.4154293 118.322388,35.9414837 112.947572,29.0048454 C106.466585,20.640602 100,11.9716887 90.6061274,8.46350895 C81.2122547,4.95532919 71.6760075,0.0184376965 60.3050847,3.45014138e-15 C50.0639602,-0.0156470688 41.1866979,3.81315012 32.0370491,7.29430887 C25,9.97168871 18.9892062,15.8948743 13.220339,21.7627669 C4.38255742,30.7522532 0,49.1138128 0,63.3650577 C0,76.2501657 6.10169492,87.1377953 10.5753493,96.044375 C19.8034525,114.416567 38.6949153,119.504375 60,119.971689 Z" id="path-51"></path>
        <path d="M60,119.971689 C78.2589865,120.372188 93,110.971689 105,99.9716887 C117,88.9716887 120,71.3914805 120,55.4408118 C120,45.4154293 118.322388,35.9414837 112.947572,29.0048454 C106.466585,20.640602 100,11.9716887 90.6061274,8.46350895 C81.2122547,4.95532919 71.6760075,0.0184376965 60.3050847,3.45014138e-15 C50.0639602,-0.0156470688 41.1866979,3.81315012 32.0370491,7.29430887 C25,9.97168871 18.9892062,15.8948743 13.220339,21.7627669 C4.38255742,30.7522532 0,49.1138128 0,63.3650577 C0,76.2501657 6.10169492,87.1377953 10.5753493,96.044375 C19.8034525,114.416567 38.6949153,119.504375 60,119.971689 Z" id="path-53"></path>
        <path d="M60,119.971689 C78.2589865,120.372188 93,110.971689 105,99.9716887 C117,88.9716887 120,71.3914805 120,55.4408118 C120,45.4154293 118.322388,35.9414837 112.947572,29.0048454 C106.466585,20.640602 100,11.9716887 90.6061274,8.46350895 C81.2122547,4.95532919 71.6760075,0.0184376965 60.3050847,3.45014138e-15 C50.0639602,-0.0156470688 41.1866979,3.81315012 32.0370491,7.29430887 C25,9.97168871 18.9892062,15.8948743 13.220339,21.7627669 C4.38255742,30.7522532 0,49.1138128 0,63.3650577 C0,76.2501657 6.10169492,87.1377953 10.5753493,96.044375 C19.8034525,114.416567 38.6949153,119.504375 60,119.971689 Z" id="path-55"></path>
        <path d="M41.1761668,86.9680725 C70.9484861,89.2053147 88.1248242,72.4259984 87.4377706,42.5811878 C86.7507171,12.7363773 72.0935753,6.42735436 46.9016128,0.834248935 C21.7096503,-4.75885649 -2.33722305,18.7321863 0.181973202,42.5811878 C2.70116945,66.4301894 11.4038474,84.7308304 41.1761668,86.9680725 Z" id="path-57"></path>
    </defs>
    <g id="memes" stroke="none" stroke-width="1" fill="none" fill-rule="evenodd">
        <g id="画板" transform="translate(-50.000000, -74.000000)">
            <g id="memes_logo" transform="translate(53.000000, 77.000000)">
                <path d="M63.3099365,-1.42108547e-14 C72.8642704,0.0155028356 81.1946951,3.29373161 89.1961518,6.50989485 C91.0296699,7.24687239 92.8452989,7.9769977 94.6556876,8.65309468 C104.199034,12.2170961 110.992279,20.6993194 117.599619,29.2380851 L117.599619,29.2380851 L118.318996,30.1673601 C124.067399,37.5861433 126,47.6848964 126,58.4408109 C126,75.2487357 122.62311,93.6368756 110.027174,105.18315 C97.4682098,116.695534 82.0047994,126.389268 62.9342127,125.970966 C50.9250331,125.707552 39.6701306,123.981273 30.3412895,119.465023 C22.1744698,115.511327 15.4445783,109.4496 10.894524,100.390916 C10.5369677,99.6790589 10.1689449,98.9544815 9.79446424,98.2171663 C5.29363677,89.3554843 0,78.7260882 0,66.3650568 C0,51.3439842 4.79647111,32.1035209 14.0810443,22.6595736 C14.237753,22.500175 14.3946393,22.3407358 14.5553529,22.1776397 L14.5553529,22.1776397 L15.499842,21.222421 C21.1580909,15.5233871 27.131727,10.0922397 33.9702466,7.49039422 C34.6361299,7.23704619 35.300561,6.98184252 35.9639035,6.72653226 L35.9639035,6.72653226 L37.2981717,6.21284139 C37.5299464,6.12367944 37.7616819,6.03466603 37.9934023,5.94586201 L39.3837391,5.41603737 C47.0317368,2.5211767 54.7162681,-0.0131192344 63.3099365,-1.42108547e-14 Z" id="椭圆形" stroke="#000000" stroke-width="6" fill="#FFFFFF" fill-rule="nonzero"></path>
                <g id="椭圆形-3" transform="translate(0.000000, -0.000000)">
                    <path d="M63.3099365,3.10862447e-15 C72.8642704,0.0155028356 81.1946951,3.29373161 89.1961518,6.50989485 C91.0296699,7.24687239 92.8452989,7.9769977 94.6556876,8.65309468 C104.199034,12.2170961 110.992279,20.6993194 117.599619,29.2380851 L117.599619,29.2380851 L118.318996,30.1673601 C124.067399,37.5861433 126,47.6848964 126,58.4408109 C126,75.2487357 122.62311,93.6368756 110.027174,105.18315 C97.4682098,116.695534 82.0047994,126.389268 62.9342127,125.970966 C50.9250331,125.707552 39.6701306,123.981273 30.3412895,119.465023 C22.1744698,115.511327 15.4445783,109.4496 10.894524,100.390916 C10.5369677,99.6790589 10.1689449,98.9544815 9.79446424,98.2171663 C5.29363677,89.3554843 0,78.7260882 0,66.3650568 C0,51.3439842 4.79647111,32.1035209 14.0810443,22.6595736 C14.237753,22.500175 14.3946393,22.3407358 14.5553529,22.1776397 L14.5553529,22.1776397 L15.499842,21.222421 C21.1580909,15.5233871 27.131727,10.0922397 33.9702466,7.49039422 C34.6361299,7.23704619 35.300561,6.98184252 35.9639035,6.72653226 L35.9639035,6.72653226 L37.2981717,6.21284139 C37.5299464,6.12367944 37.7616819,6.03466603 37.9934023,5.94586201 L39.3837391,5.41603737 C47.0317368,2.5211767 54.7162681,-0.0131192344 63.3099365,3.10862447e-15 Z" id="路径" stroke="#000000" stroke-width="6"></path>
                    <g id="路径-5-Clipped" transform="translate(3.000000, 2.999999)">
                        <mask id="mask-2" fill="white">
                            <use xlink:href="#path-1"></use>
                        </mask>
                        <g id="path-1"></g>
                        <path d="M58.4110169,-5.91598938 C31.1176005,9.30398519 47.7603953,-1.0734865 10.8368644,28.536875" id="路径-5" stroke="#733DFF" stroke-width="5" mask="url(#mask-2)"></path>
                    </g>
                    <g id="路径-6-Clipped" transform="translate(3.000000, 2.999999)">
                        <mask id="mask-4" fill="white">
                            <use xlink:href="#path-3"></use>
                        </mask>
                        <g id="path-1"></g>
                        <path d="M55.9123411,-0.129510037 C37.4778534,9.25100473 18.6623995,19.8728115 6.77502648,37.2814042" id="路径-6" stroke="#733DFF" stroke-width="5" mask="url(#mask-4)"></path>
                    </g>
                    <g id="路径-7-Clipped" transform="translate(3.000000, 2.999999)">
                        <mask id="mask-6" fill="white">
                            <use xlink:href="#path-5"></use>
                        </mask>
                        <g id="path-1"></g>
                        <path d="M65.599179,2.51126037 C42.6927833,9.65963411 22.7070018,29.1513968 6.56547934,46.024966" id="路径-7" stroke="#733DFF" stroke-width="5" mask="url(#mask-6)"></path>
                    </g>
                    <g id="路径-8-Clipped" transform="translate(3.000000, 2.999999)">
                        <mask id="mask-8" fill="white">
                            <use xlink:href="#path-7"></use>
                        </mask>
                        <g id="path-1"></g>
                        <path d="M67.6201668,-0.967204974 C30.296584,21.1807981 50.3252314,7.80276815 8.70067532,40.7753466" id="路径-8" stroke="#733DFF" stroke-width="5" mask="url(#mask-8)"></path>
                    </g>
                    <g id="路径-9-Clipped" transform="translate(3.000000, 2.999999)">
                        <mask id="mask-10" fill="white">
                            <use xlink:href="#path-9"></use>
                        </mask>
                        <g id="path-1"></g>
                        <path d="M58.220339,3.33347827 C34.0792849,10.7316795 16.1766216,28.3915296 -2.70127119,43.8901014" id="路径-9" stroke="#733DFF" stroke-width="5" mask="url(#mask-10)"></path>
                    </g>
                    <g id="路径-10-Clipped" transform="translate(3.000000, 2.999999)">
                        <mask id="mask-12" fill="white">
                            <use xlink:href="#path-11"></use>
                        </mask>
                        <g id="path-1"></g>
                        <path d="M76.3724841,0.7081849 C64.7725469,5.73691462 -18.0619739,58.2449935 0.368445445,56.1759714" id="路径-10" stroke="#733DFF" stroke-width="5" mask="url(#mask-12)"></path>
                    </g>
                    <g id="路径-11-Clipped" transform="translate(3.000000, 2.999999)">
                        <mask id="mask-14" fill="white">
                            <use xlink:href="#path-13"></use>
                        </mask>
                        <g id="path-1"></g>
                        <path d="M80.0331038,0.645309414 C55.8293453,16.5413129 17.6033439,35.2075017 5.32607256,62.4848009" id="路径-11" stroke="#733DFF" stroke-width="5" mask="url(#mask-14)"></path>
                    </g>
                    <g id="路径-12-Clipped" transform="translate(3.000000, 2.999999)">
                        <mask id="mask-16" fill="white">
                            <use xlink:href="#path-15"></use>
                        </mask>
                        <g id="path-1"></g>
                        <path d="M95.1731329,2.3216666 C26.3503382,45.5027342 67.1237308,18.3487125 -24.6868379,87.1822918" id="路径-12" stroke="#733DFF" stroke-width="5" mask="url(#mask-16)"></path>
                    </g>
                    <g id="路径-13-Clipped" transform="translate(3.000000, 2.999999)">
                        <mask id="mask-18" fill="white">
                            <use xlink:href="#path-17"></use>
                        </mask>
                        <g id="path-1"></g>
                        <path d="M105.164857,2.6534557 C40.8097296,49.6741989 75.850807,23.1911007 0.654462394,82.8661315" id="路径-13" stroke="#733DFF" stroke-width="5" mask="url(#mask-18)"></path>
                    </g>
                    <g id="路径-14-Clipped" transform="translate(3.000000, 2.999999)">
                        <mask id="mask-20" fill="white">
                            <use xlink:href="#path-19"></use>
                        </mask>
                        <g id="path-1"></g>
                        <path d="M112.201073,1.45205026 C69.1763029,24.68415 33.3653133,53.7020064 -5.80971928,83.3091619" id="路径-14" stroke="#733DFF" stroke-width="5" mask="url(#mask-20)"></path>
                    </g>
                    <g id="路径-15-Clipped" transform="translate(3.000000, 2.999999)">
                        <mask id="mask-22" fill="white">
                            <use xlink:href="#path-21"></use>
                        </mask>
                        <g id="path-1"></g>
                        <path d="M109.302172,15.2556377 C62.0842185,41.1618499 21.7077571,70.7723497 -22.456303,102.393323" id="路径-15" stroke="#733DFF" stroke-width="5" mask="url(#mask-22)"></path>
                    </g>
                    <g id="路径-16-Clipped" transform="translate(3.000000, 2.999999)">
                        <mask id="mask-24" fill="white">
                            <use xlink:href="#path-23"></use>
                        </mask>
                        <g id="path-1"></g>
                        <path d="M107.987288,18.8917755 C71.3135571,45.1076303 34.6398327,71.3234805 -2.03389831,97.5393353" id="路径-16" stroke="#733DFF" stroke-width="5" mask="url(#mask-24)"></path>
                    </g>
                    <g id="路径-17-Clipped" transform="translate(3.000000, 2.999999)">
                        <mask id="mask-26" fill="white">
                            <use xlink:href="#path-25"></use>
                        </mask>
                        <g id="path-1"></g>
                        <path d="M113.077993,27.2087513 C42.4722061,69.3842803 83.4875977,43.1315194 -7.60229078,109.366698" id="路径-17" stroke="#733DFF" stroke-width="5" mask="url(#mask-26)"></path>
                    </g>
                    <g id="路径-18-Clipped" transform="translate(3.000000, 2.999999)">
                        <mask id="mask-28" fill="white">
                            <use xlink:href="#path-27"></use>
                        </mask>
                        <g id="path-1"></g>
                        <path d="M116.605535,29.7073264 C81.3401054,50.4687495 54.2860553,74.7995578 22.4294889,101.476308" id="路径-18" stroke="#733DFF" stroke-width="5" mask="url(#mask-28)"></path>
                    </g>
                    <g id="路径-19-Clipped" transform="translate(3.000000, 2.999999)">
                        <mask id="mask-30" fill="white">
                            <use xlink:href="#path-29"></use>
                        </mask>
                        <g id="path-1"></g>
                        <path d="M125.186043,34.4191186 C74.2862706,67.2547491 115.288349,40.3527447 6.56547934,121.130218" id="路径-19" stroke="#733DFF" stroke-width="5" mask="url(#mask-30)"></path>
                    </g>
                    <g id="路径-20-Clipped" transform="translate(3.000000, 2.999999)">
                        <mask id="mask-32" fill="white">
                            <use xlink:href="#path-31"></use>
                        </mask>
                        <g id="path-1"></g>
                        <path d="M124.213784,46.2784026 C86.1147627,70.6091862 55.1757751,104.440132 14.6504237,124.735401" id="路径-20" stroke="#733DFF" stroke-width="5" mask="url(#mask-32)"></path>
                    </g>
                    <g id="路径-21-Clipped" transform="translate(3.000000, 2.999999)">
                        <mask id="mask-34" fill="white">
                            <use xlink:href="#path-33"></use>
                        </mask>
                        <g id="path-1"></g>
                        <path d="M132.794293,44.0322967 C80.6094187,82.6985602 113.135131,57.9606853 36.5783898,119.913335" id="路径-21" stroke="#733DFF" stroke-width="5" mask="url(#mask-34)"></path>
                    </g>
                    <g id="路径-22-Clipped" transform="translate(3.000000, 2.999999)">
                        <mask id="mask-36" fill="white">
                            <use xlink:href="#path-35"></use>
                        </mask>
                        <g id="path-1"></g>
                        <path d="M132.069319,50.4049691 C101.05866,75.5822483 70.0480005,100.759527 39.0373411,125.936807" id="路径-22" stroke="#733DFF" stroke-width="5" mask="url(#mask-36)"></path>
                    </g>
                    <g id="路径-23-Clipped" transform="translate(3.000000, 2.999999)">
                        <mask id="mask-38" fill="white">
                            <use xlink:href="#path-37"></use>
                        </mask>
                        <g id="path-1"></g>
                        <path d="M144.654065,51.5115776 C131.473577,62.9050288 16.2579337,169.364222 40.0294624,130.142693" id="路径-23" stroke="#733DFF" stroke-width="5" mask="url(#mask-38)"></path>
                    </g>
                    <g id="路径-24-Clipped" transform="translate(3.000000, 2.999999)">
                        <mask id="mask-40" fill="white">
                            <use xlink:href="#path-39"></use>
                        </mask>
                        <g id="path-1"></g>
                        <path d="M128.218022,69.1254195 C104.669293,86.9610991 81.1205641,104.796779 57.5718353,122.632458" id="路径-24" stroke="#733DFF" stroke-width="5" mask="url(#mask-40)"></path>
                    </g>
                    <g id="路径-25-Clipped" transform="translate(3.000000, 2.999999)">
                        <mask id="mask-42" fill="white">
                            <use xlink:href="#path-41"></use>
                        </mask>
                        <g id="path-1"></g>
                        <path d="M112.505959,70.5328631 C55.2354899,117.000338 83.1134888,93.4415053 28.8172007,141.147838" id="路径-25" stroke="#733DFF" stroke-width="5" mask="url(#mask-42)"></path>
                    </g>
                    <g id="路径-26-Clipped" transform="translate(3.000000, 2.999999)">
                        <mask id="mask-44" fill="white">
                            <use xlink:href="#path-43"></use>
                        </mask>
                        <g id="path-1"></g>
                        <path d="M115.556806,38.8619971 C37.433084,88.4019731 79.8831889,60.5537657 -11.206303,123.249605" id="路径-26" stroke="#733DFF" stroke-width="5" mask="url(#mask-44)"></path>
                    </g>
                    <g id="路径-27-Clipped" transform="translate(3.000000, 2.999999)">
                        <mask id="mask-46" fill="white">
                            <use xlink:href="#path-45"></use>
                        </mask>
                        <g id="path-1"></g>
                        <path d="M95.4978814,29.7866462 C32.000434,59.1224989 64.8662438,42.5312613 -2.68240201,80.3366024" id="路径-27" stroke="#733DFF" stroke-width="5" mask="url(#mask-46)"></path>
                    </g>
                    <g id="路径-28-Clipped" transform="translate(3.000000, 2.999999)">
                        <mask id="mask-48" fill="white">
                            <use xlink:href="#path-47"></use>
                        </mask>
                        <g id="path-1"></g>
                        <path d="M107.815479,24.1094735 C60.1636215,32.9639411 21.9442079,56.0469745 -22.2080244,77.1734818" id="路径-28" stroke="#733DFF" stroke-width="5" mask="url(#mask-48)"></path>
                    </g>
                    <g id="路径-29-Clipped" transform="translate(3.000000, 2.999999)">
                        <mask id="mask-50" fill="white">
                            <use xlink:href="#path-49"></use>
                        </mask>
                        <g id="path-1"></g>
                        <path d="M128.294492,34.9405014 C81.7051922,54.9506932 117.320952,38.9092163 26.0146319,91.7044902" id="路径-29" stroke="#733DFF" stroke-width="5" mask="url(#mask-50)"></path>
                    </g>
                    <g id="路径-30-Clipped" transform="translate(3.000000, 2.999999)">
                        <mask id="mask-52" fill="white">
                            <use xlink:href="#path-51"></use>
                        </mask>
                        <g id="path-1"></g>
                        <path d="M104.421014,48.9182057 C50.976651,81.9634504 79.6669209,62.5915831 19.4928496,108.607355" id="路径-30" stroke="#733DFF" stroke-width="5" mask="url(#mask-52)"></path>
                    </g>
                    <g id="路径-31-Clipped" transform="translate(3.000000, 2.999999)">
                        <mask id="mask-54" fill="white">
                            <use xlink:href="#path-53"></use>
                        </mask>
                        <g id="path-1"></g>
                        <path d="M123.50768,77.0158094 C107.935646,92.2055595 92.3636123,107.39531 76.7915784,122.58506" id="路径-31" stroke="#733DFF" stroke-width="5" mask="url(#mask-54)"></path>
                    </g>
                    <g id="路径-32-Clipped" transform="translate(3.000000, 2.999999)">
                        <mask id="mask-56" fill="white">
                            <use xlink:href="#path-55"></use>
                        </mask>
                        <g id="path-1"></g>
                        <path d="M120.133077,80.8734623 C89.7300247,103.861818 104.26758,91.0154351 76.8114407,119.722774" id="路径-32" stroke="#733DFF" stroke-width="5" mask="url(#mask-56)"></path>
                    </g>
                </g>
                <path d="M63.0343628,107.258919 C90.2510694,107.258919 110.835785,88.6131841 110.835785,62.1035161 C110.835785,35.5938481 89.9904856,14.2024002 62.773779,14.2024002 C35.5570723,14.2024002 17.7029037,34.9460591 17.7029037,61.4557271 C17.7029037,70.6315486 19.8503437,78.7863368 24.4358063,86.0764241 C33.0981048,99.8479711 45.2382057,107.258919 63.0343628,107.258919 Z" id="椭圆形" fill="#FFFFFF" fill-rule="nonzero"></path>
                <g id="椭圆形-2" transform="translate(18.288639, 14.838288)">
                    <path d="M14.310489,10.7278951 C23.5874781,2.43832141 36.3245282,-2.00646462 49.3345935,0.882022813 C63.503269,4.02774422 74.3752295,7.49629852 81.5197082,14.8541768 C87.6088406,21.1251866 91.1071234,30.2173115 91.436738,44.5353901 C91.7968615,60.1787384 87.3685801,72.3282768 79.0553153,80.3046524 C70.7754596,88.2489727 58.5690213,92.1306776 43.0257963,90.9626813 C28.7558262,89.8903639 19.1578121,85.2230839 12.6474799,78.1739549 C5.00024471,69.8938323 1.61053242,58.2155588 0.192535716,44.791513 C-1.15620863,32.0230731 4.69012569,19.3242953 14.310489,10.7278951 Z" id="路径" stroke="#000000" stroke-width="4"></path>
                    <g id="路径-2-Clipped" transform="translate(1.999497, 2.000232)">
                        <mask id="mask-58" fill="white">
                            <use xlink:href="#path-57"></use>
                        </mask>
                        <g id="path-3"></g>
                        <path d="M40.5122102,-1.76329788 C33.3510528,2.37503973 25.7904551,5.91773682 19.028738,10.651715 C12.4745891,15.2403715 -6.56344162,29.4735366 0.723075931,26.0936635 C19.9278588,17.1854671 34.7190065,-0.848528658 55.276788,-6.16205221 C78.9794347,-12.288422 9.26783842,19.726282 4.99406175,31.1864992 C4.26624859,33.1381447 9.24628716,30.324136 11.0668872,29.2459044 C20.1195956,23.8845307 28.3250804,17.224659 37.4428234,11.9690531 C43.6784003,8.3747716 61.9958982,-2.36671846 57.0149149,2.76076156 C-28.7337139,91.0313617 60.0083768,-15.9515682 10.0150689,37.2599837 C9.04612614,38.2913006 12.9871649,37.0274166 14.1999867,36.2804245 C21.5538077,31.7511147 28.1520389,26.1231613 35.4900853,21.5696041 C43.9358435,16.3286665 67.5626739,-0.838603183 61.5005119,6.92851864 C54.1454087,16.3522165 41.1085613,19.8289354 31.3476426,26.8770929 C20.7760483,34.5106225 -11.2868689,56.5342283 0.550939889,50.9389437 C25.6085315,39.0951678 46.4047247,19.7163779 71.4799312,7.90807775 C86.205154,0.97374406 44.6882426,26.2308901 31.9054081,36.1736428 C25.0560666,41.5012021 18.6153104,47.3659133 12.6764709,53.6466238 C12.0254105,54.3351627 14.7450129,53.9751794 15.5524842,53.4679278 C24.1561079,48.0631511 31.9424812,41.4796546 40.5759229,36.1202519 C49.7912222,30.399648 76.1817303,12.2148939 69.0331404,20.2686101 C59.1396165,31.414813 43.6995359,36.4647383 31.9914761,45.7916276 C22.0618171,53.701805 -8.50743513,72.3128774 4.30663535,71.83112 C9.71241064,71.6278846 64.432892,22.792057 75.0422531,25.522708 C87.4104214,28.7060432 53.3464318,38.7770496 43.0014762,46.1119728 C32.6004362,53.4866618 2.20999264,76.6197741 12.8698445,69.6050474 C35.0145535,55.0326984 56.515148,39.5117623 77.5102815,23.4034172 C98.3433288,7.41943145 4.93663753,72.0863165 18.3636669,66.2207197 C32.173003,60.1881122 66.4802052,30.6696774 55.6422976,40.9646566 L79.1422206,27.5711743 C69.2971479,36.923055 56.335708,42.5642753 45.4046742,50.6894231 C35.7512919,57.8648797 6.39267771,78.336525 17.4415095,73.4339358 C32.6083937,66.704084 68.2059439,32.154177 58.0879707,45.0615891 L81.6951993,31.8816702 C74.7391315,40.7554666 62.6003412,44.2513908 53.4525931,50.9749009 C42.3854188,59.1091714 7.78467064,80.2119096 21.0898994,76.4260041 C37.4476096,71.7715373 73.1988254,34.7332876 63.2174012,48.1963961 L84.1855831,37.5628952 C78.2037019,45.6313546 66.9710168,48.3050745 58.7541596,54.2164897 C48.9002306,61.3056558 17.8690477,78.043648 30.0175005,76.5327858 C44.9067993,74.6810539 79.7444087,43.8646434 68.0673901,53.0582346 L80.4075323,47.3944434 C65.9378362,58.7867752 49.1917804,67.2964937 35.0396254,79.0617699 C25.0936394,87.3302826 56.6085057,64.6435999 67.7242358,57.9385964 C72.7576171,54.902463 88.051042,46.2589453 83.434444,49.8700366 C68.3036307,61.7053208 46.3670532,66.7614168 36.0053757,82.7490091 C26.764115,97.0078497 95.6667408,48.8899248 79.7636988,55.5338278 C63.8323474,62.1895579 50.7078567,73.9725273 35.9193076,82.7849662 C21.8953164,91.1418081 95.528201,44.0554941 83.4769191,55.1067008 C72.5707544,65.107818 56.3902908,68.8802599 46.2631189,79.6316358 C38.7269044,87.6323566 64.5601844,61.1903892 75.4077627,63.6732122 C85.320639,65.9420981 40.5568288,77.4506818 50.2334255,80.5403703 C60.6251293,83.8583888 83.2775986,55.0368377 78.7554734,64.7421193 C73.8192839,75.3360565 53.4323159,73.069489 48.7311473,83.7645253 C37.0672262,110.299643 138.612092,12.7921162 49.4398113,88.3419757 C45.2634579,91.8803276 58.9251779,82.7849662 63.6678611,80.0064615" id="路径-2" stroke="#50F412" stroke-width="3" mask="url(#mask-58)"></path>
                    </g>
                </g>
                <path d="M91.372161,34.2986338 C91.440404,34.8359495 91.4745763,35.6194332 91.4745763,36.6491348 L93.3419022,76.7832512 C93.3419022,79.8725053 93.8735155,84.4278838 92.1418854,84.9651497 C91.275969,85.2337826 88.9822377,85.3680742 87.660776,85.3680742 C86.3391621,85.3680742 82.7923643,86.1547744 82.017709,85.9309219 C81.2429524,85.7070694 80.6506167,85.4384364 80.2404484,85.125023 C79.8303815,84.8116096 79.511373,84.3639046 79.2834736,83.781908 C79.0555742,83.0208394 78.9417005,81.8567964 78.9417005,80.2897791 C80.1712809,69.169571 80.2811096,61.2262278 79.2711864,56.4597495 C78.8417603,54.4330107 77.2405078,58.9148578 75.0530789,61.9368665 C72.8657514,64.9588752 71.4758437,66.8504637 70.8833559,67.6115323 C70.2910202,68.3726507 69.8809027,68.8987589 69.6530539,69.1897572 C69.4251038,69.4807555 68.8669403,69.88368 67.97831,70.3985308 C67.0896797,70.9134314 65.0422177,71.3177105 64.0169492,71.3177105 C62.9916299,71.3177105 61.4319246,71.1500366 60.5888235,70.6800161 C59.7457731,70.2097964 59.141979,69.7509336 58.7773906,69.3032784 L58.2305841,68.5645253 C57.3191892,67.4452628 55.519164,65.0612387 52.8305085,61.4124031 C50.1418529,57.7635178 49.9198259,58.0898601 49.779661,59.4313417 C49.2293273,64.698443 49.6024995,71.5202191 50.8991776,79.8966702 C50.8991776,80.9264216 50.8650053,81.6986978 50.7966102,82.2135486 C50.7282657,82.7284491 50.5118246,83.299288 50.1472362,83.9261148 C49.4637408,85.1348884 43.2563684,83.8491036 40.385444,83.8491036 C37.6056287,83.8491036 35.873948,83.2446919 35.1903511,82.0359183 C34.8258134,81.4090914 34.6093723,80.827045 34.5410786,80.2897791 C34.4726327,79.752563 34.4384604,78.9466641 34.4384604,77.8721821 L38.141129,40.5474963 C38.141129,39.5177947 38.1753012,38.7454687 38.2437471,38.2305682 C38.3120409,37.7157174 38.528482,37.1225132 38.8930196,36.4509557 C39.5766165,35.2869128 41.3538771,34.7049162 44.2248015,34.7049162 C45.4551542,34.7049162 47.0994101,34.2731687 47.9880911,34.5642168 C48.8766707,34.855215 49.5062324,35.3452405 49.779661,35.6586041 L50.7966102,36.6491348 C51.1460656,37.6218792 52.8409809,39.6029406 55.8813559,42.5923192 C58.921731,45.5816978 61.9725785,48.2231131 65.0338983,50.5165651 C68.0947617,47.2038354 70.12866,44.892597 71.1355932,43.5828499 C76.0777578,37.154434 78.1480878,33.4870712 79.4744082,31.8411058 C80.2491141,30.6322325 82.5807526,30.6716555 85.4744922,30.6716555 C88.3682319,30.6716555 90.08477,31.2765752 90.7226856,32.4854484 C91.087274,33.1570059 91.3037658,33.7614176 91.372161,34.2986338 Z" id="Fill-5" stroke="#000000" stroke-width="5" fill="#FFFFFF" fill-rule="nonzero"></path>
                <g id="编组-2" transform="translate(31.751616, 101.344830)">
                    <path d="M7.84918945,1.26683769 L7.84918945,1.97261661 C8.65412534,2.07892046 9.28121455,2.32171761 9.74021554,2.67935381 C10.3765767,3.17518236 10.2789265,3.14948031 10.8699352,4.08912851 L10.8699352,4.08912851 L7.91168879,5.63256755 L7.906505,5.81182777 C8.96649224,6.13883554 9.80508739,6.58191172 10.2464519,6.93030433 L10.3484156,7.01530795 C11.004549,7.60551191 11.3353508,8.35341588 11.3353508,9.26149741 C11.3353508,9.79068277 11.2163652,10.2756028 10.9818774,10.7171511 C10.7996116,11.0603637 10.3496836,11.4286453 9.99045375,11.7007346 C9.48492638,12.1025109 9.10745916,12.3522038 8.38398631,12.3984207 L8.38398631,12.3984207 L8.66986635,14.3681483 L5.950854,13.7108493 L5.99277892,12.3278601 C5.5066113,12.1957679 5.08038995,11.9484811 4.74367617,11.7366209 C4.395874,11.517784 4.29005267,11.4168412 4.11232971,11.2476169 C3.63981153,10.8094783 3.4040174,10.470451 3.23734976,10.1428869 C3.01270462,9.70137541 2.85947943,9.13590558 2.79060289,8.44186843 L2.79060289,8.44186843 L5.45368879,8.10756755 L5.34974999,8.07966798 C5.17648231,8.03064493 5.0636944,7.99061042 4.94223885,7.93544812 L4.86777222,7.90034247 C4.45217149,7.69796515 4.08796451,7.37738296 3.7824335,6.92980307 C3.47831496,6.48429236 3.31819309,5.94337286 3.31819309,5.30159679 C3.31819309,4.44014497 3.68221514,3.69278547 4.20897139,3.14520583 C4.68843193,2.62806158 4.89273893,2.40889819 5.58983728,2.18408893 L5.58983728,2.18408893 L5.58983728,1.50410231 L7.84918945,1.26683769 Z" id="$" stroke="#50F412" transform="translate(7.062977, 7.817493) rotate(31.456823) translate(-7.062977, -7.817493) "></path>
                    <polygon id="M" stroke="#50F412" transform="translate(16.871424, 11.896720) rotate(18.830000) translate(-16.871424, -11.896720) " points="22.4031856 6.40477928 22.3213201 16.4804447 18.8767042 15.0922417 19.0195027 14.1185146 18.2148747 16.2164694 14.58332 16.8656532 14.441376 15.7094992 14.3895826 17.3886614 11.3396617 16.1580423 11.4176529 6.55920315 16.1678124 7.17813637 16.9535947 10.5346841 17.9442263 7.53405027"></polygon>
                    <polygon id="E" stroke="#50F412" fill="#000000" fill-rule="nonzero" transform="translate(28.308720, 13.171343) rotate(5.980000) translate(-28.308720, -13.171343) " points="25.6495912 8.30694658 32.4288833 8.90523386 32.6392947 10.9139098 28.0868142 11.6553205 32.5910751 12.1724966 31.6354441 14.4732763 28.2438948 14.8123992 32.4391146 15.9472341 30.7006446 18.0357394 23.9781445 17.4424642"></polygon>
                    <polygon id="M" stroke="#50F412" fill="#000000" fill-rule="nonzero" transform="translate(40.249147, 13.234629) rotate(-6.660000) translate(-40.249147, -13.234629) " points="39.1172313 7.83457997 39.938986 11.8830844 40.6599969 8.02051649 46.0695708 10.0264628 45.4110112 18.6346772 41.9205176 17.1877264 41.9746402 16.0392065 41.6951564 17.1090538 38.4842346 18.2339172 37.3857427 14.0149458 36.9782114 17.676051 34.4587998 18.5914697 34.4287228 8.79842487"></polygon>
                    <path d="M55.464278,6.0296903 L55.4887153,8.95146328 L54.4245776,8.86583924 L55.342716,12.0679266 L50.8650498,12.0312346 L56.9897945,13.2306303 L55.4356309,15.7822101 L47.997399,14.9449792 L46.8485016,6.42856393 L55.464278,6.0296903 Z M51.1214662,8.60362281 L51.016098,9.15993999 L53.5505776,8.79683924 L51.1214662,8.60362281 Z" id="E" stroke="#50F412" fill="#000000" fill-rule="nonzero" transform="translate(51.919148, 10.905950) rotate(-19.490000) translate(-51.919148, -10.905950) "></path>
                    <path d="M60.5045304,1.7081839 C61.7626913,1.72262127 62.715252,1.98383654 63.3782896,2.45149531 C64.2074887,3.0363523 64.674657,4.00550813 64.7165652,5.40168053 L64.7165652,5.40168053 L62.2582368,5.18690412 L62.3581748,5.21907541 C62.6376407,5.31300775 62.8777287,5.40672716 63.0786025,5.49983694 L63.2219078,5.56954878 C63.8354119,5.88354901 64.2762409,6.27587499 64.5583784,6.73237565 C64.8545492,7.21158231 64.9259408,7.49031743 64.9327925,8.07992251 C64.9404793,8.74139237 64.762377,9.34916995 64.398285,9.90319653 C64.0372029,10.4526429 63.5306659,10.8697508 62.8766599,11.1473249 C62.1170625,11.4756565 61.4607725,11.7455859 60.6160549,11.7358928 C58.9297286,11.7165422 57.7869304,11.3405172 57.1366814,10.698333 C56.4575007,10.0275761 56.3927826,9.04010293 56.3047097,7.99406612 L56.3047097,7.99406612 L58.0252368,7.24390412 L57.9643157,7.22103438 C57.7074885,7.11848232 57.5055467,7.00616753 57.3254742,6.86567372 L57.2371075,6.7929933 C56.6028215,6.24799356 56.2811873,5.55871518 56.2715045,4.72548414 C56.2651477,4.17845706 56.4173804,3.66262123 56.733115,3.17936539 C57.0142639,2.74904568 57.7791931,2.38032373 58.3905296,2.12399983 C59.0978841,1.82546586 59.4876001,1.69651465 60.5045304,1.7081839 Z M59.6882368,7.69790412 L59.6948103,7.74987835 C59.7400572,8.05990342 59.8148625,8.30423813 59.9454321,8.46824512 C60.1403485,8.71164403 60.4214432,8.82060507 60.7731505,8.82464091 C61.0127551,8.82739037 61.2091506,8.79633263 61.3413841,8.68356386 C61.158325,8.04540634 60.48506,7.88046543 59.8586814,7.73769919 L59.8586814,7.73769919 L59.6882368,7.69790412 Z M60.4495777,4.15584883 C60.0418375,4.60825245 60.2452339,4.66475421 60.528315,4.72610063 L60.528315,4.72610063 L60.6722368,4.75890412 L60.6666277,4.73959615 C60.6215194,4.54590693 60.6290599,4.34567709 60.5259952,4.22096066 L60.4495777,4.15584883 Z" id="S" stroke="#50F412" fill="#000000" fill-rule="nonzero" transform="translate(60.602172, 6.721803) rotate(-30.668927) translate(-60.602172, -6.721803) "></path>
                    <polygon id="路径-33" fill="#50F412" fill-rule="nonzero" points="14.6713188 7.84384378 11.5855732 14.8113245 14.052112 15.6890673 15.2238331 14.8113245 15.9501247 8.93146843"></polygon>
                    <polygon id="路径-34" fill="#50F412" fill-rule="nonzero" points="8.41421169 3.48838306 6.49153196 4.04849137 6.14359472 4.64145557 4.52094838 8.29985857 4.52094838 9.6309176 6.14359472 11.0218665 7.82677428 11.0218665 8.41421169 9.6309176 10.2857255 5.38408775 10.2857255 4.64145557 9.89245224 3.48838306"></polygon>
                </g>
                <g id="编组-2" transform="translate(32.576861, 102.112732)" fill="#000000" fill-rule="nonzero">
                    <path d="M7.26619418,12.9648956 L7.00305866,11.1518789 C7.97828133,11.2129609 8.34320804,10.9897117 8.64942806,10.7414127 C8.95564808,10.4931138 9.54088476,10.1094853 9.73759563,9.73907212 C9.9343065,9.36865897 10.032662,8.96161155 10.032662,8.51792987 C10.032662,7.76082167 9.75888907,7.13600389 9.21134335,6.64347652 C8.79764213,6.27713384 7.82414888,5.7706182 6.59115702,5.4409098 L6.55199837,2.99496792 C6.76290487,3.10894119 6.8558614,3.07090518 7.10928522,3.48515566 C7.36270905,3.89940614 7.36270905,3.89940614 7.38113757,4.18370734 L9.44040111,3.28295867 C9.10386986,2.73285952 9.11083979,2.70468125 8.63021631,2.33019763 C8.14959284,1.95571401 7.45502095,1.73997888 6.54650063,1.68299224 L6.54650063,1.07852682 L5.28714846,1.210777 L5.28714846,1.81524241 C4.27765068,2.08634691 4.22057038,2.27615429 3.77294253,2.74158016 C3.32531467,3.20700603 3.01550427,3.83348485 3.01550427,4.55802925 C3.01550427,5.08719089 3.14123699,5.53596067 3.39270244,5.90433858 C3.64416788,6.27271649 3.94126214,6.54035017 4.2839852,6.70723961 C4.62670827,6.87412905 4.78551148,6.86953609 5.60480212,7.09748264 L5.65825978,9.20522849 C5.37434718,9.06683236 5.1705385,8.90808387 5.04683372,8.72898301 C4.92312895,8.54988215 4.82477351,8.25884324 4.75176741,7.8558663 L2.5517658,8.13155378 C2.6247719,8.5386012 2.73428104,8.88560912 2.88029323,9.17257755 C3.02630543,9.45954598 3.23612739,9.75401638 3.50584436,10.0023153 C3.77556133,10.2506142 3.82291874,10.3280254 4.20726361,10.5698549 C4.59160848,10.8116845 5.10662009,11.1184826 5.70283655,11.1713988 L5.66023621,12.5766684 L7.26619418,12.9648956 Z M5.38479764,5.40499764 C5.16233349,5.29149933 4.64749845,5.21996781 4.48803811,4.43489894 C4.32857777,3.64983007 5.13840145,3.22939901 5.36439679,3.12105971 L5.38479764,5.40499764 Z M6.64099332,7.42974011 C6.9835175,7.59655763 7.52388535,7.67580376 7.56290279,8.51699333 C7.60192022,9.3581829 7.0853842,9.26204914 6.86664631,9.39587445 C6.84684098,9.20632576 6.77162332,8.55094765 6.64099332,7.42974011 Z" id="$" transform="translate(6.292214, 7.021711) rotate(31.456823) translate(-6.292214, -7.021711) "></path>
                    <polygon id="M" transform="translate(16.059223, 11.086696) rotate(18.830000) translate(-16.059223, -11.086696) " points="13.1009686 15.8908148 13.3317777 8.40788438 14.204284 15.5145709 17.0381369 15.0079858 19.3582968 8.95849404 18.6175454 14.0095951 21.0163498 14.9763291 21.0869871 6.28257734 17.5220417 7.18543137 16.0606447 11.6120187 14.9489412 6.86326596 11.1020966 6.36203228 11.0314593 15.0557841"></polygon>
                    <polygon id="E" transform="translate(27.504528, 12.414211) rotate(5.980000) translate(-27.504528, -12.414211) " points="29.6575811 16.749012 30.6986515 15.4983255 27.102282 14.733417 26.7637915 13.6096346 30.4620723 13.2398415 31.0479137 11.8293682 26.7474132 11.3456911 26.7724859 10.4625704 31.2665635 9.73067116 31.1482739 8.60142919 25.2331845 8.07940968 23.7424917 16.2269925"></polygon>
                    <polygon id="M" transform="translate(39.403114, 12.400986) rotate(-6.660000) translate(-39.403114, -12.400986) " points="35.6826212 16.5462109 36.3550475 10.5053898 37.9982952 16.8166013 40.4456523 15.9592331 41.8660883 10.5218876 41.6034893 16.0944282 44.1320901 17.1426356 44.7092617 9.59826703 40.2095967 7.92972773 39.1265214 13.7319304 37.8939227 7.65933738 34.0969667 8.43990047 34.1236029 17.1126743"></polygon>
                    <polygon id="E" transform="translate(50.974277, 10.175580) rotate(-19.490000) translate(-50.974277, -10.175580) " points="54.3549761 14.5238273 55.3511278 12.8883748 49.4777623 12.0140956 49.589947 10.8016459 53.8580114 10.8366203 53.1908762 8.51050883 49.5751139 9.02816317 49.8941515 7.34372489 54.1645889 7.68385454 54.1490612 5.82733255 46.5974269 6.17694094 47.6212053 13.7658889"></polygon>
                    <path d="M59.7965554,10.4680214 C60.6528882,10.4778478 61.2930299,10.1581512 61.8530405,9.92046066 C62.4130512,9.68277008 62.8471049,9.32951456 63.1552017,8.8606941 C63.4632985,8.39187364 63.6140945,7.87758501 63.6075897,7.31782821 C63.6020537,6.84143944 63.5474833,6.61511971 63.3078183,6.22733999 C63.0681534,5.83956027 62.6885031,5.51269191 62.1688675,5.24673491 C61.6492318,4.9807779 60.790917,4.7139116 59.593923,4.44613599 C59.1103286,4.34135233 58.8035371,4.23065872 58.6735483,4.11405517 C58.5395853,4.00137539 58.4717964,3.87556214 58.4701817,3.73661542 C58.4679673,3.54605991 58.8309453,2.93276881 59.1627375,2.831212 C59.4945296,2.72965519 59.5956748,2.78963661 59.8793794,2.95788003 C60.163084,3.12612345 60.2476128,3.42652261 60.3205258,3.82032761 L63.3462267,4.08431713 C63.2231387,3.17788674 62.8626841,2.5138416 62.2648628,2.09218172 C61.6670414,1.67052183 60.8032727,1.45321016 59.6735567,1.44024669 C58.7528985,1.42968216 58.4000911,1.54648115 57.8740688,1.76868423 C57.3480465,1.99088732 56.5851545,2.28898608 56.3264586,2.68493994 C56.0677626,3.0808938 55.9410211,3.50317044 55.9462342,3.95176986 C55.9541691,4.63459376 56.2179988,5.19928805 56.7377234,5.64585273 C57.2534276,6.09237127 57.9434278,6.20257104 59.1445805,6.4823025 C59.8781281,6.64949502 60.638214,6.87969017 60.8413071,7.06064262 C61.0444002,7.24159508 61.1472615,7.44521364 61.1498911,7.6714983 C61.1526591,7.90969269 61.0495587,8.11789425 60.8405898,8.29610299 C60.6316209,8.47431173 60.3321499,8.56117864 59.9421768,8.5567037 C59.4195323,8.55070637 59.0154452,8.3694322 58.7299154,8.0128812 C58.5545034,7.79255261 58.436233,7.4736453 58.3751042,7.05615926 L57.5627739,6.86431279 L55.9809672,7.24632308 C56.0675953,8.12851884 56.0772127,8.99636634 56.6627851,9.57467606 C57.2483575,10.1529858 58.2929476,10.4507675 59.7965554,10.4680214 Z" id="S" transform="translate(59.776936, 5.953915) rotate(-30.668927) translate(-59.776936, -5.953915) "></path>
                </g>
            </g>
        </g>
    </g>
</svg>