<svg width="201" height="201" viewBox="0 0 201 201" fill="none" xmlns="http://www.w3.org/2000/svg">
<circle cx="100.475" cy="100.088" r="100" fill="url(#paint0_linear_19111_408)"/>
<path fill-rule="evenodd" clip-rule="evenodd" d="M151.555 71.953H110.248C115.653 63.0756 134.948 55.6729 151.555 55.6729V71.953ZM90.7023 102.151H49.395V118.431C67.1936 118.431 85.2973 111.029 90.7023 102.151ZM110.248 126.948H151.555V110.667C136.83 110.667 115.653 118.07 110.248 126.948ZM90.9683 101.732H151.555V84.6051C150.526 84.6051 149.485 84.6026 148.436 84.6001H148.435H148.434C128.235 84.5526 104.644 84.497 90.9683 101.732ZM49.395 127.367H109.982C96.3066 144.601 72.7155 144.546 52.516 144.498C51.4659 144.496 50.4249 144.493 49.395 144.493V127.367ZM109.982 72.3718H49.395V89.4984L49.8241 89.4984C69.952 89.4993 96.3907 89.5004 109.982 72.3718Z" fill="white"/>
<defs>
<linearGradient id="paint0_linear_19111_408" x1="100.475" y1="0.0878906" x2="100.475" y2="200.088" gradientUnits="userSpaceOnUse">
<stop stop-color="#040404"/>
<stop offset="1" stop-color="#049185"/>
</linearGradient>
</defs>
</svg>
