<svg viewBox="0 0 48 48" fill="none" xmlns="http://www.w3.org/2000/svg">
<circle cx="24" cy="24" r="24" fill="#051F44"/>
<path d="M15.3974 29.9321C14.1594 29.9321 13.059 29.2963 12.4483 28.2293C11.8376 27.1623 11.8513 25.8961 12.4868 24.8428L23.0617 7.27438L23.0754 7.25528C23.6229 6.45572 24.4784 6 25.422 6C26.2831 6 27.1277 6.3875 27.6806 7.03697C28.2198 7.67279 28.4371 8.49145 28.2886 9.34285L26.0493 22.2285L21.8677 24.327L23.7274 13.5153L16.429 25.9944H20.3657L19.6202 29.9321H15.4001H15.3974Z" fill="url(#paint0_linear_33339_9317)"/>
<path d="M22.4484 41.9995C21.5873 41.9995 20.7427 41.612 20.1898 40.9625C19.6506 40.3267 19.4333 39.508 19.5818 38.6566L21.8211 25.771L26.0027 23.6725L24.143 34.4842L31.4414 22.0051H27.5047L28.2502 18.0674H32.4703C33.7082 18.0674 34.8086 18.7032 35.4194 19.7702C36.0301 20.8372 36.0163 22.1034 35.3809 23.1567L24.806 40.7251L24.7922 40.7442C24.2448 41.5438 23.3892 41.9995 22.4456 41.9995H22.4484Z" fill="url(#paint1_linear_33339_9317)"/>
<path opacity="0.15" d="M19.9999 27.9168H15.623C14.275 27.9168 13.4525 26.4486 14.1623 25.3134L24.4318 8.86387C24.938 8.05067 26.2062 8.50911 26.0686 9.4533L24.0659 23.2177L21.8678 24.3229L23.7275 13.5111L16.4291 25.9902H20.3658L20.0027 27.914L19.9999 27.9168Z" fill="white"/>
<path opacity="0.15" d="M27.8843 20.0625H32.2611C33.6091 20.0625 34.4317 21.5306 33.7219 22.6658L23.4496 39.1154C22.9435 39.9286 21.6752 39.4701 21.8128 38.526L23.8155 24.7616L26.0136 23.6564L24.1539 34.4681L31.4523 21.9891H27.5156L27.8788 20.0652L27.8843 20.0625Z" fill="white"/>
<defs>
<linearGradient id="paint0_linear_33339_9317" x1="20.1649" y1="25.6341" x2="20.1649" y2="1.70205" gradientUnits="userSpaceOnUse">
<stop stop-color="#0058F1"/>
<stop offset="0.53" stop-color="#00B1FF"/>
<stop offset="1" stop-color="#03A9FD"/>
</linearGradient>
<linearGradient id="paint1_linear_33339_9317" x1="27.7028" y1="41.9995" x2="27.7028" y2="18.0674" gradientUnits="userSpaceOnUse">
<stop stop-color="#FFAB11"/>
<stop offset="0.09" stop-color="#FDA41A"/>
<stop offset="0.24" stop-color="#FA9232"/>
<stop offset="0.43" stop-color="#F4745B"/>
<stop offset="0.65" stop-color="#ED4B92"/>
<stop offset="0.9" stop-color="#E317D9"/>
<stop offset="1" stop-color="#DF00F9"/>
</linearGradient>
</defs>
</svg>
