<svg
        id="gold-version"
        data-name="gold-version"
        xmlns="http://www.w3.org/2000/svg"
        xmlns:xlink="http://www.w3.org/1999/xlink"
        viewBox="0 0 88 88"
        width="88"
        height="88"
      >
        <defs>
          <filter
            id="drop-shadow-1"
            x="0"
            y="0"
            width="88"
            height="88"
            filterUnits="userSpaceOnUse"
          >
            <feOffset dx="0" dy="0" />
            <feGaussianBlur result="blur" stdDeviation="2.83" />
            <feFlood flood-color="#000" flood-opacity=".73" />
            <feComposite in2="blur" operator="in" />
            <feComposite in="SourceGraphic" />
          </filter>
        </defs>
        <g id="gold" data-name="gold">
          <g>
            <path
              fill="#ffc200"
              filter="url(#drop-shadow-1)"
              d="M8.74,78.95c38.77,0,70.2-31.43,70.2-70.2H8.74v70.2Z"
            />
            <path
              fill="#fff"
              d="M41.56,53.46c-6.73,0-12.5-5.14-13.14-11.98-.2-2.17.28-4.3.83-6.28.18-.64.29-1.23.33-1.8.1-1.18-.04-2.29-.45-3.39-.77-2.1-2.32-3.78-4.35-4.72-2.03-.94-4.31-1.03-6.41-.26-.25.09-.49.19-.72.3,0,.97.18,1.92.52,2.85,1.28,3.48,4.69,5.68,8.32,5.48-.21-1.33-1.16-3.99-5.3-5.27l.56-1.82c3.63,1.13,5.26,3.21,5.99,4.76.81,1.71.71,3.18.71,3.24l-.05.75-.75.12c-4.84.77-9.57-2.01-11.26-6.61-.49-1.34-.7-2.74-.62-4.15l.03-.52.45-.25c.46-.26.95-.48,1.46-.67,2.58-.95,5.37-.83,7.86.32,2.49,1.15,4.39,3.21,5.33,5.79.5,1.37.69,2.75.56,4.21-.06.68-.19,1.39-.4,2.15-.58,2.09-.93,3.84-.77,5.6.58,6.21,6.1,10.78,12.3,10.2,3.01-.28,5.72-1.72,7.65-4.04,1.93-2.32,2.83-5.26,2.55-8.27-.28-3.01-1.72-5.72-4.04-7.65-2.32-1.93-5.26-2.83-8.27-2.55-1.7.16-3.31.68-4.76,1.56l-.98-1.63c1.7-1.02,3.57-1.63,5.56-1.82,3.51-.33,6.94.73,9.66,2.98,2.72,2.25,4.39,5.43,4.72,8.94.33,3.51-.73,6.94-2.98,9.66-2.25,2.72-5.43,4.39-8.94,4.72-.42.04-.83.06-1.24.06ZM37.19,22.69c1.15-1.82,1.13-4.06.12-5.81-1.46.28-2.81,1.15-3.67,2.5-1.16,1.82-1.13,4.06-.12,5.81,1.46-.28,2.81-1.15,3.67-2.51ZM40.74,49.74c.09-.38-.14-.77-.53-.87-2.56-.63-4.8-2.31-5.85-4.38-.18-.35-.61-.5-.96-.32-.35.18-.5.61-.32.96,1.24,2.44,3.84,4.4,6.79,5.13.06.01.11.02.17.02.32,0,.62-.22.7-.55Z"
            />
          </g>
        </g>
      </svg>